<svg width="129" height="16" viewBox="0 0 129 16" fill="none" xmlns="http://www.w3.org/2000/svg">
<path d="M16.3125 8C16.3125 3.71875 12.8438 0.25 8.5625 0.25C4.28125 0.25 0.8125 3.71875 0.8125 8C0.8125 11.875 3.625 15.0938 7.34375 15.6562V10.25H5.375V8H7.34375V6.3125C7.34375 4.375 8.5 3.28125 10.25 3.28125C11.125 3.28125 12 3.4375 12 3.4375V5.34375H11.0312C10.0625 5.34375 9.75 5.9375 9.75 6.5625V8H11.9062L11.5625 10.25H9.75V15.6562C13.4688 15.0938 16.3125 11.875 16.3125 8ZM72.125 4.75C72.75 4.28125 73.3125 3.71875 73.75 3.0625C73.1875 3.3125 72.5312 3.5 71.875 3.5625C72.5625 3.15625 73.0625 2.53125 73.3125 1.75C72.6875 2.125 71.9688 2.40625 71.25 2.5625C70.625 1.90625 69.7812 1.53125 68.8438 1.53125C67.0312 1.53125 65.5625 3 65.5625 4.8125C65.5625 5.0625 65.5938 5.3125 65.6562 5.5625C62.9375 5.40625 60.5 4.09375 58.875 2.125C58.5938 2.59375 58.4375 3.15625 58.4375 3.78125C58.4375 4.90625 59 5.90625 59.9062 6.5C59.375 6.46875 58.8438 6.34375 58.4062 6.09375V6.125C58.4062 7.71875 59.5312 9.03125 61.0312 9.34375C60.7812 9.40625 60.4688 9.46875 60.1875 9.46875C59.9688 9.46875 59.7812 9.4375 59.5625 9.40625C59.9688 10.7188 61.1875 11.6562 62.625 11.6875C61.5 12.5625 60.0938 13.0938 58.5625 13.0938C58.2812 13.0938 58.0312 13.0625 57.7812 13.0312C59.2188 13.9688 60.9375 14.5 62.8125 14.5C68.8438 14.5 72.125 9.53125 72.125 5.1875C72.125 5.03125 72.125 4.90625 72.125 4.75ZM95.2188 12.25V10.5938H93.5625V12.25H95.2188ZM122 4.40625C120 4.40625 118.406 6.03125 118.406 8C118.406 10 120 11.5938 122 11.5938C123.969 11.5938 125.594 10 125.594 8C125.594 6.03125 123.969 4.40625 122 4.40625ZM122 10.3438C120.719 10.3438 119.656 9.3125 119.656 8C119.656 6.71875 120.688 5.6875 122 5.6875C123.281 5.6875 124.312 6.71875 124.312 8C124.312 9.3125 123.281 10.3438 122 10.3438ZM126.562 4.28125C126.562 3.8125 126.188 3.4375 125.719 3.4375C125.25 3.4375 124.875 3.8125 124.875 4.28125C124.875 4.75 125.25 5.125 125.719 5.125C126.188 5.125 126.562 4.75 126.562 4.28125ZM128.938 5.125C128.875 4 128.625 3 127.812 2.1875C127 1.375 126 1.125 124.875 1.0625C123.719 1 120.25 1 119.094 1.0625C117.969 1.125 117 1.375 116.156 2.1875C115.344 3 115.094 4 115.031 5.125C114.969 6.28125 114.969 9.75 115.031 10.9062C115.094 12.0312 115.344 13 116.156 13.8438C117 14.6562 117.969 14.9062 119.094 14.9688C120.25 15.0312 123.719 15.0312 124.875 14.9688C126 14.9062 127 14.6562 127.812 13.8438C128.625 13 128.875 12.0312 128.938 10.9062C129 9.75 129 6.28125 128.938 5.125ZM127.438 12.125C127.219 12.75 126.719 13.2188 126.125 13.4688C125.188 13.8438 123 13.75 122 13.75C120.969 13.75 118.781 13.8438 117.875 13.4688C117.25 13.2188 116.781 12.75 116.531 12.125C116.156 11.2188 116.25 9.03125 116.25 8C116.25 7 116.156 4.8125 116.531 3.875C116.781 3.28125 117.25 2.8125 117.875 2.5625C118.781 2.1875 120.969 2.28125 122 2.28125C123 2.28125 125.188 2.1875 126.125 2.5625C126.719 2.78125 127.188 3.28125 127.438 3.875C127.812 4.8125 127.719 7 127.719 8C127.719 9.03125 127.812 11.2188 127.438 12.125Z" fill="white"/>
<path d="M38 12.25V10.5938H36.3438V12.25H38Z" fill="#F8F9FC"/>
</svg>
