<svg width="17" height="19" viewBox="0 0 17 19" fill="none" xmlns="http://www.w3.org/2000/svg">
<path d="M11.1125 11.8249L9.84244 13.6153C7.87534 12.3118 6.23605 10.4634 5.07996 8.24532L6.66734 6.81317C6.85347 6.64528 6.98502 6.41257 7.04141 6.15143C7.0978 5.89028 7.07585 5.61542 6.979 5.36983L5.53188 1.6956C5.42806 1.43201 5.24459 1.21857 5.01418 1.09334C4.78377 0.968115 4.52141 0.939243 4.27388 1.01187L1.51952 1.81701C1.26244 1.89262 1.03891 2.07199 0.891308 2.3211C0.743709 2.5702 0.682309 2.87173 0.718753 3.16849C1.20239 7.05048 2.79352 10.6494 5.25166 13.4214C7.7098 16.1934 10.9013 17.9877 14.3439 18.5332C14.6071 18.5742 14.8744 18.5049 15.0953 18.3385C15.3162 18.1721 15.4753 17.92 15.5424 17.6302L16.2564 14.5235C16.3206 14.2444 16.2949 13.9487 16.1838 13.689C16.0728 13.4293 15.8837 13.2225 15.6501 13.1053L12.3924 11.4755C12.1748 11.3662 11.9312 11.3412 11.6997 11.4044C11.4681 11.4676 11.2617 11.6155 11.1125 11.8249Z" fill="white"/>
</svg>
