<svg width="16" height="21" viewBox="0 0 16 21" fill="none" xmlns="http://www.w3.org/2000/svg">
<path d="M7.83317 0.375C4.00334 0.375 0.0415039 3.28954 0.0415039 8.16667C0.0415039 13.339 7.20388 20.5609 7.50913 20.8657C7.59484 20.9519 7.71171 21 7.83317 21C7.95463 21 8.0715 20.9519 8.15721 20.8657C8.46246 20.5609 15.6248 13.339 15.6248 8.16667C15.6248 3.28954 11.663 0.375 7.83317 0.375ZM7.83317 10.9167C6.31655 10.9167 5.08317 9.68329 5.08317 8.16667C5.08317 6.65004 6.31655 5.41667 7.83317 5.41667C9.34979 5.41667 10.5832 6.65004 10.5832 8.16667C10.5832 9.68329 9.34979 10.9167 7.83317 10.9167Z" fill="white"/>
</svg>
