<svg width="59" height="15" viewBox="0 0 59 15" fill="none" xmlns="http://www.w3.org/2000/svg">
<path d="M48.5427 7.51488C48.5427 5.95764 48.5427 4.40757 48.5427 2.85033C48.5427 2.51835 48.5189 2.18701 48.4714 1.86001C48.455 1.69728 48.395 1.54547 48.3006 1.42762C48.2063 1.30977 48.0827 1.23231 47.9486 1.20697C47.807 1.16162 47.6613 1.13752 47.5148 1.13521H47.1464C47.109 1.13931 47.0714 1.13073 47.0378 1.11045C47.0043 1.09017 46.976 1.05898 46.9563 1.02039C46.9563 1.02039 46.9563 0.970158 46.9563 0.962982C46.8137 0.855338 46.8434 0.690285 46.8434 0.532408C46.8328 0.500139 46.8328 0.464209 46.8434 0.43194C46.8895 0.361281 46.9481 0.303982 47.0149 0.264246C47.0818 0.22451 47.1551 0.203344 47.2296 0.202301H52.1256C52.9607 0.189953 53.7948 0.278906 54.6152 0.467822C55.0563 0.561429 55.4856 0.723018 55.8927 0.948629C56.1351 1.06923 56.3661 1.22079 56.5819 1.40073C56.9485 1.71094 57.2835 2.07225 57.5801 2.47717C57.7353 2.70675 57.8801 2.94631 58.0139 3.19479C58.2732 3.68002 58.4845 4.20025 58.6437 4.74485C58.8094 5.3327 58.9171 5.94211 58.9645 6.56044C59.012 7.15948 59.012 7.76264 58.9645 8.36168C58.9262 8.87335 58.8426 9.37858 58.715 9.86868C58.6753 10.0518 58.6257 10.2316 58.5664 10.4069C58.4192 10.8369 58.2402 11.25 58.0317 11.6412C57.8538 11.9679 57.6551 12.2774 57.4375 12.5669C57.1582 12.9228 56.8474 13.2404 56.5106 13.5142C56.267 13.708 56.0055 13.8371 55.756 14.0022C55.3888 14.209 55.0044 14.3678 54.6092 14.4758C53.8343 14.7224 53.0333 14.8288 52.2325 14.7916H47.2593C47.187 14.7898 47.1158 14.7698 47.0503 14.7327C46.9848 14.6956 46.9264 14.6423 46.879 14.5763C46.8539 14.5061 46.8409 14.4304 46.8409 14.3538C46.8409 14.2773 46.8539 14.2016 46.879 14.1314C46.9106 14.0398 46.9659 13.9631 47.0366 13.9127C47.1073 13.8622 47.1896 13.8408 47.2712 13.8515C47.4697 13.8706 47.6694 13.8585 47.8654 13.8156C48.0175 13.7788 48.1563 13.6858 48.2627 13.5495C48.3692 13.4133 48.4379 13.2404 48.4595 13.0549C48.4595 12.7464 48.519 12.4378 48.519 12.1292L48.5427 7.51488ZM50.6402 7.51488V13.1769C50.6394 13.1911 50.6409 13.2053 50.6446 13.2187C50.6484 13.2321 50.6543 13.2445 50.662 13.2552C50.6697 13.2659 50.6791 13.2746 50.6897 13.2809C50.7002 13.2871 50.7116 13.2908 50.7233 13.2917H50.8244C51.4767 13.4551 52.1454 13.5011 52.8089 13.4281C53.2214 13.3933 53.6246 13.2642 53.9972 13.0478C54.2543 12.899 54.5025 12.7288 54.74 12.5382C54.9913 12.3015 55.2295 12.045 55.453 11.7704C55.6806 11.4036 55.8795 11.012 56.0471 10.6007C56.2142 10.2241 56.3477 9.82721 56.4452 9.41658C56.5818 8.66292 56.6358 7.89084 56.6057 7.12019C56.5805 6.49416 56.4988 5.87333 56.3621 5.26872C56.1912 4.52052 55.8825 3.82869 55.4589 3.24502C55.2063 2.89663 54.9166 2.59017 54.5974 2.33364C54.3524 2.13254 54.0867 1.9709 53.8071 1.85283C53.3275 1.63935 52.8209 1.52767 52.3098 1.52273C51.819 1.51288 51.3289 1.56823 50.8481 1.68778C50.6223 1.73801 50.6223 1.73084 50.6223 1.99636L50.6402 7.51488Z" fill="#154679"/>
<path d="M20.3013 0.201172H24.9411C25.154 0.201172 25.1477 0.201172 25.1603 0.430671C25.1603 1.19806 25.2291 1.96544 25.2667 2.73283C25.2667 2.95516 25.2667 3.17031 25.2667 3.39264C25.2715 3.44156 25.2674 3.4911 25.2544 3.53805C25.2415 3.58499 25.2201 3.6283 25.1916 3.66517C25.1442 3.73542 25.0819 3.79072 25.0107 3.82585C24.9395 3.86097 24.8617 3.87478 24.7846 3.86598C24.5091 3.86598 24.5091 3.86598 24.4464 3.55042C24.3846 3.17641 24.2945 2.80927 24.1772 2.45313C24.1174 2.23103 24.005 2.0323 23.8524 1.87908C23.6999 1.72586 23.5132 1.62417 23.3131 1.58534C23.0188 1.53513 22.7215 1.51116 22.424 1.51362H19.4122C19.168 1.51362 19.1993 1.51362 19.1993 1.75029V6.32592C19.1993 6.49087 19.1993 6.49804 19.3433 6.49804H21.8479C22.0576 6.4913 22.2667 6.46975 22.4741 6.4335C22.6545 6.40512 22.8231 6.31441 22.9573 6.17346C23.0916 6.0325 23.1851 5.84801 23.2254 5.64459C23.3109 5.33556 23.3593 5.01468 23.3695 4.69074C23.3695 4.46124 23.3695 4.48276 23.5761 4.48276H23.8328C23.8989 4.48728 23.9623 4.5148 24.0144 4.56165C24.0729 4.60509 24.1198 4.66635 24.1496 4.73855C24.1795 4.81075 24.1912 4.89104 24.1835 4.97044C24.1835 6.45262 24.1835 7.93719 24.1835 9.42415C24.1908 9.48907 24.1831 9.55506 24.1611 9.61549C24.1391 9.67592 24.1036 9.72865 24.0582 9.7684C24.0257 9.79154 24.0013 9.82709 23.9894 9.8688C23.9803 9.89195 23.9652 9.9113 23.9461 9.92415C23.9271 9.93701 23.905 9.94273 23.8829 9.94052H23.4571C23.4008 9.94052 23.3945 9.90466 23.3882 9.84729C23.3444 9.55324 23.3068 9.2592 23.263 8.97232C23.263 8.8002 23.1879 8.64242 23.1503 8.47747C23.1332 8.40765 23.0983 8.34524 23.0501 8.29817C22.8903 8.10424 22.6865 7.96516 22.4615 7.89655C22.2387 7.84782 22.0122 7.8238 21.7853 7.82483H19.2995C19.2306 7.82483 19.193 7.82483 19.1993 7.93241V12.2714C19.1867 12.5461 19.1867 12.8214 19.1993 13.0961C19.2051 13.1767 19.2341 13.2527 19.2817 13.3124C19.3293 13.3721 19.3928 13.412 19.4623 13.426C19.5958 13.4604 19.7324 13.4773 19.8693 13.4762H22.4741C22.7371 13.4762 22.9938 13.4332 23.2505 13.3973C23.5528 13.3349 23.8344 13.1786 24.0645 12.9455C24.3067 12.7313 24.518 12.4748 24.6906 12.1853C24.8078 12.0056 24.9165 11.8189 25.0162 11.6259C25.1603 11.3534 25.298 11.0808 25.4232 10.8011C25.4289 10.7778 25.4412 10.7573 25.4582 10.743C25.4753 10.7287 25.496 10.7214 25.5172 10.7223H25.6862C25.7653 10.6981 25.8493 10.7063 25.9237 10.7456C25.998 10.7849 26.058 10.8528 26.0932 10.9374C26.1245 10.9877 26.1447 11.0459 26.1524 11.107C26.16 11.1682 26.1547 11.2305 26.1371 11.2888C26.0243 11.6331 25.9242 12.006 25.8177 12.3431L25.273 14.1576C25.2229 14.3225 25.1728 14.4875 25.129 14.6596C25.1214 14.7042 25.0987 14.7436 25.0658 14.7691C25.033 14.7947 24.9926 14.8043 24.9536 14.7959H15.6615C15.5701 14.8064 15.4781 14.7839 15.3985 14.7313C15.3252 14.6787 15.2685 14.6008 15.2365 14.5088C15.2044 14.4168 15.1988 14.3155 15.2205 14.2196C15.2421 14.1237 15.2898 14.0382 15.3567 13.9754C15.4237 13.9127 15.5063 13.876 15.5927 13.8707C15.8019 13.8816 16.0116 13.8696 16.2188 13.8348C16.3265 13.8133 16.4316 13.7772 16.5319 13.7273C16.6464 13.682 16.747 13.5996 16.8215 13.4901C16.8959 13.3806 16.9411 13.2487 16.9514 13.1105C16.992 12.6986 17.0109 12.2842 17.0078 11.8697V3.07708C17.0119 2.68856 16.991 2.30022 16.9451 1.91524C16.8763 1.36301 16.7636 1.26978 16.319 1.1622C16.1109 1.13507 15.9009 1.13507 15.6928 1.1622C15.636 1.16973 15.5785 1.15814 15.5274 1.12885C15.4762 1.09955 15.4336 1.05382 15.4048 0.997245C15.3401 0.917201 15.2967 0.817688 15.2796 0.710372C15.2796 0.480873 15.386 0.380468 15.505 0.265718C15.5453 0.24806 15.5899 0.24806 15.6302 0.265718H20.3639L20.3013 0.201172Z" fill="#154679"/>
<path d="M40.5513 14.7776H38.3203C38.2691 14.7819 38.2177 14.7735 38.1697 14.7531C38.1217 14.7327 38.0782 14.7007 38.0422 14.6594C38.0063 14.618 37.9787 14.5683 37.9614 14.5137C37.9441 14.4591 37.9376 14.4008 37.9422 14.3431V13.9927C37.9422 13.9086 37.9422 13.8665 38.0476 13.8736C38.2242 13.8785 38.4008 13.862 38.5744 13.8245C38.6651 13.8119 38.7545 13.7885 38.8408 13.7544C38.9386 13.7279 39.0246 13.6621 39.0827 13.5693C39.1408 13.4765 39.1672 13.363 39.1569 13.2499C39.1426 12.9738 39.0837 12.7031 38.9834 12.451C38.7727 11.8062 38.5248 11.1825 38.2831 10.5518C38.2459 10.2085 38.0476 10.1734 37.7873 10.1804C36.5479 10.1804 35.2402 10.1804 33.9636 10.1804C33.7591 10.1804 33.7591 10.1804 33.6847 10.3907C33.6104 10.6009 33.5484 10.7831 33.474 10.9793C33.2757 11.4979 33.0774 12.0165 32.8543 12.5351C32.7938 12.7078 32.7461 12.886 32.7118 13.0677C32.6913 13.1413 32.6849 13.2191 32.693 13.2957C32.701 13.3724 32.7234 13.4463 32.7585 13.5125C32.7936 13.5787 32.8408 13.6357 32.8968 13.6798C32.9528 13.724 33.0165 13.7542 33.0836 13.7684C33.3082 13.8257 33.5359 13.8655 33.7653 13.8876C33.8707 13.8876 33.9946 13.8525 34.069 13.9296C34.1433 14.0067 34.069 14.1679 34.069 14.287V14.3921C34.069 14.4467 34.0593 14.5007 34.0405 14.551C34.0216 14.6012 33.994 14.6467 33.9593 14.6846C33.9246 14.7225 33.8835 14.7522 33.8385 14.7718C33.7934 14.7913 33.7454 14.8005 33.6971 14.7986H31.838C31.2864 14.7986 30.7411 14.7986 30.1895 14.7986C30.0036 14.7986 29.923 14.6654 29.8115 14.5603C29.8024 14.5332 29.8024 14.5033 29.8115 14.4762C29.8115 14.3221 29.8115 14.1609 29.8115 14.0067C29.8115 13.8525 29.8115 13.9226 29.892 13.9156L30.4312 13.7965C30.5719 13.7656 30.7053 13.7016 30.8228 13.6086C30.9402 13.5157 31.0391 13.3958 31.1129 13.2569C31.2244 13.0677 31.3298 12.8714 31.4289 12.6612C31.7078 12.0585 31.9309 11.4208 32.1664 10.7971C32.309 10.4117 32.4639 10.0333 32.6064 9.64783L33.1828 8.10611C33.3253 7.72068 33.474 7.33525 33.6228 6.94982C33.8211 6.43124 34.0132 5.90565 34.2115 5.38007C34.3416 5.02267 34.4842 4.67928 34.6143 4.31488C34.7445 3.95047 34.918 3.52299 35.0667 3.12355C35.2155 2.7241 35.358 2.3667 35.5005 1.98828L35.9405 0.81797C36.0144 0.651427 36.0806 0.480675 36.1388 0.306399C36.1388 0.229313 36.207 0.201282 36.2814 0.201282C36.3557 0.201282 36.5726 0.201282 36.7152 0.201282C36.7457 0.199978 36.7758 0.210325 36.8005 0.23066C36.8252 0.250994 36.8432 0.280137 36.8515 0.313407L37.4031 1.82009L37.7997 2.92032C37.9422 3.31276 38.0786 3.7122 38.2273 4.09763C38.376 4.48306 38.4752 4.75637 38.5991 5.08574C38.7541 5.52022 38.9152 5.95471 39.0701 6.38219L39.442 7.37029C39.6031 7.79777 39.758 8.23225 39.9192 8.66674L40.3034 9.68988C40.4521 10.1033 40.6008 10.5168 40.7558 10.9233C40.9107 11.3297 41.047 11.6801 41.1834 12.0655C41.2701 12.2968 41.3755 12.521 41.4809 12.7663C41.6283 13.1221 41.8546 13.4287 42.1378 13.6563C42.2331 13.7162 42.3353 13.761 42.4414 13.7895C42.6239 13.8413 42.811 13.8696 42.9992 13.8736C43.1789 13.8736 43.1789 13.8736 43.1789 14.0698C43.1727 14.1444 43.1727 14.2194 43.1789 14.294C43.2161 14.5113 43.0983 14.6234 42.9744 14.7355C42.9172 14.7759 42.8487 14.7909 42.7823 14.7776H40.5513ZM37.6881 8.88398L37.5332 8.43548C37.3845 8.05005 37.2358 7.66462 37.0932 7.27919C36.9011 6.76061 36.7152 6.23502 36.5231 5.71644C36.331 5.19786 36.2194 4.89653 36.0707 4.48306C36.0707 4.48306 36.0707 4.39897 36.0087 4.39196C35.9467 4.38495 35.9529 4.43401 35.9405 4.46905C35.8104 4.81243 35.6864 5.16983 35.5563 5.49219C35.3828 5.94069 35.2155 6.38919 35.0481 6.83769C34.8808 7.2862 34.6391 7.89588 34.4284 8.42146C34.3677 8.57077 34.318 8.72546 34.2797 8.88398H37.6881Z" fill="#154679"/>
<path d="M9.78495 10.2948C9.87298 10.3746 9.97701 10.4195 10.0844 10.4241C10.1279 10.4357 10.169 10.4588 10.2053 10.4921C10.2415 10.5253 10.2721 10.5679 10.295 10.6171C10.3179 10.6664 10.3327 10.7212 10.3384 10.7783C10.3442 10.8353 10.3408 10.8933 10.3284 10.9485L9.81267 13.0604C9.68514 13.5704 9.56869 14.0877 9.4467 14.5977C9.3968 14.7988 9.3968 14.7988 9.23045 14.7988H0.962822C0.890086 14.7997 0.818851 14.772 0.758481 14.7194C0.698111 14.6669 0.65143 14.5919 0.624576 14.5043C0.600121 14.3888 0.605281 14.2661 0.63928 14.1547C0.673279 14.0432 0.734279 13.9492 0.813106 13.8865C0.860565 13.8726 0.909818 13.8726 0.957277 13.8865C1.15374 13.8903 1.35017 13.8759 1.54505 13.8434C1.64422 13.8215 1.7388 13.7732 1.8228 13.7015C1.9068 13.6298 1.97838 13.5362 2.03301 13.4268C2.09202 13.2827 2.1243 13.1229 2.12728 12.9599C2.15767 12.7394 2.17252 12.5158 2.17164 12.2918V2.70194C2.17264 2.40489 2.14847 2.1086 2.09955 1.81838C2.03856 1.43766 1.9332 1.27244 1.54505 1.15751C1.36072 1.13245 1.17487 1.13245 0.990547 1.15751C0.943737 1.15848 0.897253 1.14725 0.853859 1.12449C0.810464 1.10173 0.771043 1.0679 0.737939 1.02502C0.704835 0.98213 0.678723 0.931062 0.661153 0.874845C0.643584 0.818629 0.634917 0.758411 0.635666 0.69777C0.627682 0.6081 0.640251 0.51737 0.671805 0.436893C0.703359 0.356416 0.752502 0.289752 0.813106 0.245215C0.842699 0.213973 0.880386 0.198555 0.918462 0.202114H5.58737C5.6489 0.197296 5.71046 0.211003 5.76722 0.24216C5.82398 0.273317 5.8744 0.321077 5.91452 0.381699C5.9508 0.448839 5.97425 0.526186 5.98292 0.607367C5.9916 0.688548 5.98526 0.771237 5.96443 0.848621C5.91684 0.93416 5.86299 1.01355 5.80362 1.08567C5.76481 1.15032 5.70381 1.13596 5.64836 1.13596C5.39769 1.13127 5.14719 1.15531 4.89979 1.20779C4.82617 1.22651 4.75385 1.25293 4.68353 1.28681C4.55516 1.33803 4.44161 1.43798 4.35758 1.57374C4.27355 1.70949 4.2229 1.87479 4.2122 2.04825C4.17458 2.36716 4.15052 2.6885 4.14012 3.01083V12.0691C4.13643 12.332 4.15502 12.5945 4.19557 12.8521C4.20268 12.9836 4.24881 13.1064 4.32427 13.1947C4.39973 13.2831 4.49867 13.3302 4.60035 13.3262C4.80552 13.3262 5.00514 13.3262 5.20476 13.3262C5.83689 13.3262 6.46348 13.3262 7.09007 13.3262C7.33974 13.3192 7.58841 13.2831 7.8331 13.2185C8.15849 13.1082 8.45886 12.8988 8.70921 12.6079L8.81457 12.4786C8.99552 12.2458 9.14876 11.9795 9.26926 11.6884C9.46245 11.2376 9.63465 10.7722 9.78495 10.2948Z" fill="#154679"/>
</svg>
