<svg width="126" height="122" viewBox="0 0 126 122" fill="none" xmlns="http://www.w3.org/2000/svg">
<path fill-rule="evenodd" clip-rule="evenodd" d="M74.5512 0.590726C73.6348 0.936691 69.8734 3.16378 66.2025 5.45131C56.8742 11.3153 55.8195 11.8796 54.2907 12.8527C40.3594 11.5422 37.0044 10.257 37.4451 22.2672C37.525 24.135 37.3945 24.3068 32.5589 28.6663C21.0335 39.0737 21.6611 38.068 24.0257 42.164C24.5203 43.091 32.1786 57.6486 32.1786 57.6486C30.9069 62.0854 30.9819 62.5245 28.5949 64.0897C26.1014 65.6875 21.1748 69.7009 17.3932 73.2103C15.9476 74.576 14.2811 76.0531 13.7009 76.4944C11.1351 78.5104 3.56951 87.2901 2.04634 89.9775C-2.36051 97.6823 1.4519 98.6517 14.6562 93.0997L19.0004 91.2885C17.48 107.352 17.0683 109.15 20.314 109.611C21.2483 109.743 28.8286 102.917 33.8732 97.3498C39.465 91.2412 50.7616 80.9917 51.3285 81.5006C54.8767 84.2889 56.6121 86.4868 63.0627 89.9725C63.8013 90.3629 64.6947 90.4421 65.4887 90.2215C66.7654 89.8315 68.7951 89.1675 73.5399 87.08C78.2846 84.9924 78.3907 84.9599 79.2295 85.9357C81.1951 88.2614 90.8211 108.334 92.848 114.382C95.5038 122.327 97.5743 124.049 100.62 118.388C102.786 114.316 105.3 106.771 106.768 102.362C106.768 102.362 117.194 111.41 118.106 112.254C119.931 113.941 121.652 114.185 124.147 113.159C128.704 111.282 116.295 81.9609 107.115 72.9945C105.134 71.0474 104.237 69.8253 104.498 69.4816C104.751 69.1843 108.87 66.0559 113.618 62.4932C126.22 53.1429 126.021 54.876 115.696 41.4631C110.924 35.2643 110.181 33.4452 109.85 32.4462C109.684 31.9467 110.337 28.755 110.474 25.3471C110.711 17.8599 111.139 18.3014 102.502 17.5518C97.1422 17.0769 96.1669 16.8909 95.3943 16.1149C82.055 2.94071 78.4377 -0.904602 74.5512 0.590726ZM81.8124 8.99916C88.7249 15.9301 92.2488 18.8577 93.9539 19.1949C95.8065 19.553 103.814 20.4512 105.936 20.7048L104.966 29.516C104.822 30.638 105.137 31.7298 105.729 32.6708C113.838 44.6267 113.946 45.1656 117.681 52.4072C106.627 61.5487 103.249 65.639 100.707 67.5156C99.0314 68.7534 99.2042 68.9208 97.7607 78.4264C85.4943 77.6854 85.8297 77.495 81.6482 78.9484C70.6011 82.8073 64.6171 86.8135 64.6171 86.8135L60.6266 83.9624C57.1777 81.4738 49.3006 75.1675 47.4012 73.0416C47.1383 72.8139 46.1582 71.1992 43.8308 70.9641L34.5623 70.0773L36.1094 59.682C36.5337 56.6482 35.0596 54.3922 27.3657 41.4955C39.4487 28.7395 37.2756 30.5256 41.8455 25.0813C42.9961 23.6737 43.6526 19.0068 44.2395 15.6153C44.344 15.0113 44.9241 14.57 45.5715 14.6143C55.8145 15.4014 56.8309 15.6408 61.7785 12.9632C68.2389 9.40549 74.9435 5.31122 75.3511 4.70265C76.0439 3.61095 77.2179 4.39636 81.8124 8.99916ZM87.9326 21.6725C83.5645 18.6727 74.2995 16.3108 68.7382 16.7116C30.0219 19.4527 28.0651 72.3922 66.4884 77.7493C96.945 81.9759 118.942 44.5417 96.4856 26.6942C92.1406 23.2692 89.8126 25.3665 93.9698 29.0028C117.566 49.5824 81.7183 87.8597 55.159 70.4296C26.8757 51.8981 49.6607 12.5289 83.0625 23.0283C86.9252 24.2904 90.3219 23.2968 87.9326 21.6725ZM66.5024 27.0092C56.7729 27.9134 47.6202 47.3209 52.2428 47.9768C53.128 48.1024 53.6981 47.1361 54.1162 44.7202C55.1132 38.9592 63.9134 29.4503 68.982 28.6939C71.4631 28.332 69.1642 26.7681 66.5024 27.0092ZM73.2431 34.0586C71.5417 34.8644 67.7383 39.0847 63.9388 42.1156C63.3505 42.6033 63.2547 43.4465 63.8136 44.0018C64.3644 44.6036 66.4782 44.6179 67.999 43.6913C70.1983 42.3374 70.3045 42.3049 69.8656 43.385C69.1255 45.0412 67.3318 50.1655 66.8626 52.003C66.4337 53.6081 66.434 53.6082 63.0999 53.6586C53.9576 53.7894 58.6584 58.3596 61.644 59.4497C64.3426 60.4514 68.629 61.0121 74.6839 61.2525C79.9359 61.4741 78.934 55.6199 73.5737 54.8593C71.164 54.5174 71.1899 54.9494 73.7782 47.2722C77.3567 36.7843 77.6066 35.6298 76.4235 34.6051C75.2154 33.4341 74.7237 33.3643 73.2431 34.0586ZM92.4005 47.6776C91.3794 53.5779 86.8937 59.7006 81.3167 62.8125C76.353 65.583 75.7032 67.2996 79.6605 67.4327C86.3216 67.6639 98.1857 50.6405 94.6149 45.9449C93.4881 44.595 92.8427 45.1223 92.4005 47.6776ZM110.792 87.5584C114.658 94.9139 118.588 104.23 118.164 104.931C118.034 105.103 115.334 103.53 112.124 101.409C104.127 96.0851 103.349 96.2127 101.429 102.938C98.2299 114.146 98.2299 114.146 94.4734 105.283C89.767 94.0474 88.2621 92.2631 81.9502 83.6086C84.6636 81.6136 85.1113 80.7727 93.9471 82.1217C100.865 83.1985 100.489 83.3356 102.079 78.8013L103.378 75.0822C104.925 77.2058 106.216 78.7694 110.792 87.5584ZM30.1471 70.2601C29.8463 73.4542 31.9637 74.6114 39.7989 75.628C48.4701 76.7633 48.5112 76.8167 42.8084 81.5291C31.2883 91.0329 27.2752 96.4612 22.641 102.277C23.871 87.6004 24.2887 87.5169 21.1745 87.1702C19.3961 86.9654 13.0133 89.2014 10.2972 90.3392C7.90026 91.3794 8.15745 89.8927 8.64641 89.1053C10.4145 86.167 29.5316 67.4119 30.0332 68.0067C30.1486 68.2134 30.2176 69.2705 30.1471 70.2601Z" fill="#0F1D41"/>
</svg>
