<svg width="100" height="96" viewBox="0 0 100 96" fill="none" xmlns="http://www.w3.org/2000/svg">
<path d="M50 95.1295C77.6142 95.1295 100 92.237 100 88.6689C100 85.1008 77.6142 82.2083 50 82.2083C22.3858 82.2083 0 85.1008 0 88.6689C0 92.237 22.3858 95.1295 50 95.1295Z" fill="#B8D2DB"/>
<path d="M67.6396 88.7437H68.9937V63.4973H65.3027L67.6396 88.7437Z" fill="#455A75"/>
<path d="M30.584 88.7437H29.2285V63.4973H32.9195L30.584 88.7437Z" fill="#455A75"/>
<path d="M32.9708 20.155H49.241C49.942 20.155 50.6362 20.2931 51.2838 20.5614C51.9315 20.8297 52.52 21.2229 53.0157 21.7186C53.5114 22.2143 53.9046 22.8028 54.1729 23.4504C54.4412 24.0981 54.5792 24.7922 54.5792 25.4933V53.2427H27.627V25.4933C27.627 24.7918 27.7652 24.0972 28.0338 23.4491C28.3025 22.8011 28.6962 22.2124 29.1925 21.7166C29.6888 21.2208 30.2779 20.8277 30.9262 20.5598C31.5745 20.2918 32.2693 20.1543 32.9708 20.155Z" fill="#62A6A3"/>
<path d="M35.4408 20.155H51.7166C53.1324 20.155 54.4902 20.7174 55.4913 21.7186C56.4924 22.7197 57.0548 24.0775 57.0548 25.4933V53.2427H30.5046C30.398 53.2427 30.2957 53.2003 30.2203 53.1249C30.1449 53.0495 30.1025 52.9473 30.1025 52.8406V25.4933C30.1025 24.0775 30.665 22.7197 31.6661 21.7186C32.6672 20.7174 34.025 20.155 35.4408 20.155Z" fill="#455A75"/>
<path d="M38.9636 58.5017C40.4134 58.1023 41.9355 58.0412 43.4126 58.3231C43.4648 53.9927 43.3224 49.6652 42.9855 45.3404C42.9673 45.0975 39.1437 45.6838 38.7515 45.7927C38.4946 49.9765 38.8631 54.2984 38.9636 58.5017Z" fill="#455A75"/>
<path d="M45.255 54.7104C51.6011 54.4312 58.0129 54.1437 64.0282 56.3605C68.3111 57.9393 73.7596 62.1762 68.6587 66.4004C65.4786 69.0291 61.0296 68.6186 57.1907 68.553C49.8827 68.4274 42.5705 68.2585 35.2611 68.2585C33.4463 68.2515 31.538 68.2222 29.9675 67.3134C26.4678 65.292 26.6856 60.4563 28.908 57.6211C31.4487 54.3824 34.8395 54.8821 38.5138 54.9017C40.7376 54.9129 42.9893 54.8123 45.255 54.7104Z" fill="#5A9996"/>
<path d="M60.1041 65.6404C52.7961 65.5148 45.4839 65.3459 38.1745 65.3459C36.3598 65.3389 34.4515 65.3082 32.881 64.4008C29.7721 62.6056 29.5976 58.5893 31.1569 55.7275C30.2771 56.1858 29.5091 56.8327 28.908 57.6219C26.6856 60.4571 26.4678 65.2998 29.9675 67.3142C31.538 68.2216 33.4477 68.2523 35.2611 68.2593C42.5705 68.2593 49.8827 68.4282 57.1907 68.5538C61.0352 68.6195 65.4786 69.0299 68.6545 66.4012C69.5005 65.7032 70.0505 65.0053 70.3701 64.3073C67.3325 66.0215 63.4865 65.6977 60.1041 65.6404Z" fill="#3D8784"/>
<path d="M39.4742 88.7437H38.1201V63.4973H41.8097L39.4742 88.7437Z" fill="#455A75"/>
<path d="M59.606 88.7437H60.9601V63.4973H57.2705L59.606 88.7437Z" fill="#455A75"/>
<path d="M58.134 32.3621C59.4434 34.0121 61.2624 36.4341 60.9581 36.5137L56.1391 37.7701C56.3611 39.201 56.1503 40.6291 56.241 42.0851C56.4295 45.0893 57.3313 48.1367 57.2308 51.1325C57.2043 51.9533 56.9614 52.9347 56.1796 53.1804C55.7147 53.32 55.2206 53.1525 54.7557 53.0115C52.8702 52.444 50.8675 52.3895 48.954 52.8537C48.5756 52.9426 48.2027 53.0535 47.8372 53.186C46.9186 53.514 46.0434 53.9677 45.0955 54.1911C44.9419 54.2274 44.7898 54.2581 44.6376 54.2818C41.3766 54.8095 38.1784 52.7351 34.8657 52.1795C34.8085 52.1697 35.2971 47.8728 35.371 47.4848C35.674 45.8975 35.5106 45.7775 33.9164 45.1786C32.6949 44.7207 31.8601 43.5397 31.486 42.2889C30.5088 39.0349 31.8476 35.6426 33.6903 32.9679C35.0863 30.934 36.9332 28.9517 39.2854 27.9424C42.1388 26.7125 45.3691 27.2709 48.3816 27.0098C51.6496 26.7307 54.7459 28.6222 56.9237 30.9046C57.0856 31.0666 57.5602 31.6403 58.134 32.3621Z" fill="#E58741"/>
<path d="M39.4163 35.969C40.5722 35.7122 39.6215 38.9648 39.5852 39.4045C39.4493 41.0226 39.647 42.6514 40.1659 44.19C40.1562 44.1634 39.4679 44.1537 39.3953 44.1411C39.2557 43.2477 37.7467 42.6879 37.3404 41.761C36.722 40.3468 38.2074 38.0993 38.7364 36.7829C38.8663 36.4409 39.0771 36.0458 39.4163 35.969Z" fill="#E58741"/>
<path d="M50.1542 28.194C50.1416 27.9748 49.7996 27.972 49.8108 28.194C49.875 29.4141 49.8373 30.6886 49.1044 31.723C48.7804 32.1769 48.3642 32.5572 47.8831 32.8391C47.402 33.1211 46.8667 33.2983 46.3124 33.3591C43.6266 33.6118 42.9621 30.542 42.4358 28.5346C42.426 28.4969 42.3716 28.5137 42.3785 28.55C42.6117 29.8524 42.9886 31.3098 43.6894 32.4517C44.3064 33.4583 45.3185 33.8994 46.4813 33.7486C47.5894 33.592 48.5918 33.0071 49.2733 32.1195C50.1486 30.9901 50.2282 29.569 50.1542 28.194Z" fill="#E58741"/>
<path d="M49.4729 28.2724C49.4031 28.6912 45.3157 28.3701 44.8759 28.3198C43.7396 28.19 43.7703 27.2463 43.4632 28.7791C43.0933 30.6344 45.0588 32.9671 46.9532 32.4575C47.7907 32.2328 48.4315 31.5432 48.8084 30.7656C49.1853 29.988 49.3305 29.1239 49.4729 28.2724Z" fill="#E58741"/>
<path d="M40.204 25.2149C37.3939 24.1972 36.6889 21.919 35.7843 19.2359C34.9324 16.7124 34.4024 14.0914 34.2069 11.4351C34.098 9.94284 34.507 8.67807 35.2371 7.38679C35.5961 6.74809 36.0638 6.17694 36.6191 5.69904C36.8048 5.54269 38.318 4.81957 38.3306 4.76233C38.9016 2.21466 41.7619 0.693037 44.1044 0.232362C45.7878 -0.0978685 47.5214 -0.0758924 49.1959 0.296906C50.8705 0.669705 52.4496 1.38525 53.834 2.39846C55.2183 3.41167 56.3778 4.70059 57.2395 6.18402C58.1011 7.66745 58.6462 9.31325 58.8404 11.0177C59.2592 14.6613 57.2811 18.5965 55.8781 21.8715C55.2653 23.3024 54.6315 24.5239 53.1364 25.0823C51.3789 25.7384 49.472 25.8626 47.6153 25.9422C45.5688 26.0288 43.4943 26.0567 41.4967 25.5932C41.0586 25.4931 40.6269 25.3668 40.204 25.2149Z" fill="#070707"/>
<path d="M39.4242 6.77292C37.1473 8.56677 35.6369 11.3601 35.8337 14.2359C35.8863 13.9664 35.835 13.687 35.6899 13.4539C35.5449 13.2208 35.3169 13.0513 35.052 12.9795C33.494 12.6165 32.3996 16.8813 32.5476 17.9925C32.7695 19.7081 36.1255 22.4219 36.3433 19.5406C36.7914 24.8649 42.0333 29.3125 47.359 28.8728C52.6847 28.433 57.1406 23.2106 56.7218 17.8836C57.0611 19.1037 58.8814 19.3745 59.8391 18.5467C60.7967 17.7188 60.9698 16.2698 60.692 15.0344C60.2844 13.2321 58.1793 10.9427 56.8238 13.4164C56.7721 11.832 56.8238 10.1708 56.042 8.72451C55.1639 7.08981 53.4245 6.09587 51.674 5.46349C48.3041 4.2448 44.4358 4.09682 41.2041 5.65474C40.5721 5.96208 39.9754 6.337 39.4242 6.77292Z" fill="#E58741"/>
<path d="M47.1079 12.9347C47.8059 13.0813 48.5165 13.1986 49.2173 13.2879C47.7861 12.5111 46.5829 11.3734 45.7273 9.98782C46.5063 11.2526 49.5328 12.1949 50.8659 12.6402C52.3582 13.1441 54.6784 13.2335 55.777 14.4298C55.4741 14.099 56.8631 12.1739 57.0543 11.7775C57.4899 10.884 57.367 9.97107 57.0543 9.04414C56.4708 7.28799 55.1111 5.34338 53.415 4.50579C52.2424 3.92645 50.9287 3.69053 49.6263 3.5621C47.6719 3.36946 45.6547 3.41134 43.7925 4.04092C42.3532 4.52673 40.0945 5.03207 39.4649 6.61373C38.7069 8.50529 40.6724 10.5518 42.1843 11.2861C43.7522 12.0342 45.4057 12.5878 47.1079 12.9347Z" fill="#070707"/>
<path d="M40.5449 10.708C39.9869 11.3523 39.3669 11.94 38.6938 12.4628C38.3029 12.7559 37.8464 13.0211 37.665 13.4776C37.5847 13.7215 37.5488 13.9777 37.5589 14.2343C37.5295 15.7 37.3718 17.0528 36.8511 18.4404C36.1936 16.4706 35.5333 13.5963 35.8739 11.5191C36.2271 9.33156 37.4137 7.43721 39.1126 6.02726C40.415 4.94398 42.5663 4.49168 42.5732 6.69175C42.5704 7.96768 41.6254 9.47953 40.5449 10.708Z" fill="#070707"/>
<path d="M55.5859 18.7554C56.4235 16.6265 57.1857 14.9723 57.1829 12.6647C57.2443 10.7201 55.6096 7.76342 55.4519 11.2045C55.336 13.6978 55.4882 16.2538 55.5859 18.7554Z" fill="#070707"/>
<path d="M42.6594 14.8354C41.9614 14.7977 41.2104 15.0323 40.7888 15.6102C40.659 15.7875 40.9019 15.9536 41.0596 15.881C41.604 15.6325 42.1136 15.4553 42.7194 15.5767C43.1955 15.6716 43.5305 16.1183 43.9996 16.1267C44.0804 16.1267 44.1579 16.0947 44.2152 16.0377C44.2725 15.9806 44.3049 15.9032 44.3053 15.8224C44.2508 15.1146 43.2499 14.862 42.6594 14.8354Z" fill="#070707"/>
<path d="M51.039 14.8354C51.737 14.7977 52.488 15.0323 52.9096 15.6102C53.0394 15.7875 52.7979 15.9536 52.6388 15.881C52.0944 15.6325 51.5862 15.4553 50.979 15.5767C50.5029 15.6716 50.1693 16.1183 49.7002 16.1267C49.6194 16.1267 49.5419 16.0947 49.4846 16.0377C49.4273 15.9806 49.3949 15.9032 49.3945 15.8224C49.4476 15.1146 50.4485 14.862 51.039 14.8354Z" fill="#070707"/>
<g style="mix-blend-mode:multiply">
<path d="M35.0074 17.9223C34.8749 17.8882 34.7346 17.9024 34.6116 17.9622C34.4886 18.022 34.3909 18.1237 34.3359 18.2489C34.3241 18.2369 34.3133 18.2238 34.3038 18.2098C34.121 17.9306 34.1461 17.5747 34.2117 17.262C34.322 16.7329 34.5774 16.2945 34.8469 15.8395C34.8605 15.8139 34.8665 15.7849 34.8641 15.756C34.8617 15.7271 34.8511 15.6995 34.8334 15.6765C34.8157 15.6535 34.7918 15.6361 34.7644 15.6264C34.7371 15.6167 34.7076 15.615 34.6793 15.6217C33.9981 15.8171 33.6072 17.0917 33.6184 17.724C33.6296 18.3564 34.1517 19.1884 34.8999 19.0335C35.4625 18.9162 35.6216 18.08 35.0074 17.9223Z" fill="#D9D9D9"/>
</g>
<g style="mix-blend-mode:multiply">
<path d="M58.7636 14.7748C58.677 14.6212 58.4606 14.7552 58.5318 14.9144C58.6975 15.2737 58.8184 15.6521 58.892 16.0409C58.9182 16.1842 58.9318 16.3294 58.9325 16.4751C58.6002 16.1512 58.0376 16.1847 57.8268 16.6398C57.7795 16.7365 57.7562 16.8432 57.759 16.9508C57.7618 17.0585 57.7905 17.1638 57.8427 17.258C57.8949 17.3522 57.9691 17.4323 58.0589 17.4917C58.1488 17.551 58.2516 17.5878 58.3587 17.5988C58.8752 17.6505 59.2172 17.18 59.2773 16.7152C59.3652 16.0493 59.0818 15.3387 58.7636 14.7748Z" fill="#D9D9D9"/>
</g>
<path d="M57.0396 8.66013C55.7758 7.93094 54.4337 7.34697 53.0387 6.91933C53.8679 7.83319 54.3944 8.98091 54.5464 10.2055C53.7004 8.8416 52.3714 7.83231 50.9335 7.11617C49.4957 6.40003 47.9433 5.9575 46.3994 5.51776C47.4583 5.07987 48.6117 4.92032 49.7497 5.0543C47.9479 4.28013 46.0134 3.86157 44.0527 3.82164C44.4855 3.83002 45.5576 2.85283 46.19 2.75371C47.0488 2.6156 47.9291 2.76789 48.6916 3.18647C48.0732 2.81095 47.3528 2.5848 46.7372 2.25116C49.9326 0.0804015 55.8837 6.06639 57.0396 8.66013Z" fill="#1E1E1D"/>
<path d="M35.8524 11.2498C35.0372 10.147 35.3736 8.78733 35.939 7.65239C36.348 6.83155 37.5192 6.44765 37.8613 5.78735C37.4553 6.57292 37.1893 7.42323 37.0753 8.30013L38.7128 7.0563C38.2116 7.7166 36.5602 11.067 37.2233 11.9046C36.8005 11.3619 36.6008 10.6784 36.6649 9.99346C36.246 10.2955 35.956 10.7439 35.8524 11.2498Z" fill="#1E1E1D"/>
<path d="M55.3869 33.9945C55.4654 34.0752 55.5373 34.162 55.6019 34.2542C55.8943 34.7205 56.1287 35.2207 56.2999 35.7437C56.7005 36.9638 56.2775 38.2202 56.2147 39.4794C56.1979 39.4542 56.1825 39.4281 56.1687 39.4012C55.9242 38.7958 55.7291 38.1716 55.5851 37.5348C55.2054 36.0564 54.9095 34.6032 54.6582 33.0872C54.6987 33.3035 55.1091 33.693 55.3869 33.9945Z" fill="#E58741"/>
<path d="M48.9189 52.8613V52.8697C48.5543 52.9563 48.195 53.0635 47.8426 53.1908C46.7914 53.5663 45.609 54.3076 44.4922 54.2364C45.1706 52.7957 46.9142 51.51 47.8872 50.1992C48.9482 48.7585 49.4437 46.9968 49.9156 45.2686C50.1948 46.0922 50.0287 46.9884 49.8639 47.84C49.5722 49.3602 48.7807 51.3495 48.9189 52.8613Z" fill="#E58741"/>
<g style="mix-blend-mode:multiply">
<path d="M43.5498 28.3765C43.5498 28.3765 45.4902 29.235 46.6098 29.2476C47.7294 29.2601 49.473 28.4393 49.473 28.4393C49.473 28.4393 46.621 29.3537 43.5498 28.3765Z" fill="#D9D9D9"/>
</g>
<path d="M44.2532 87.2323C44.4342 87.4345 44.6317 87.6213 44.8437 87.7907C46.0484 88.7567 48.1689 89.1322 49.5077 88.2095C50.0936 87.8094 50.5548 87.2519 50.838 86.6013C51.1298 85.9033 50.7543 85.4608 50.3774 84.8382C49.6083 83.5641 48.7045 82.3763 47.6817 81.2952C46.484 80.0304 44.8897 78.1584 42.9647 78.3943C41.732 78.5451 40.6236 79.7554 40.625 81.0244C40.625 81.714 41.2378 82.4106 41.5729 82.9787L42.9619 85.3324C43.35 85.9941 43.7464 86.6641 44.2532 87.2323Z" fill="#E58741"/>
<path d="M46.7044 80.6298C46.3108 79.4795 46.4448 77.9956 46.4085 76.8453C46.3554 75.1324 46.6193 73.3553 46.7282 71.6424L47.147 64.9976L40.752 66.0557L41.2587 71.1511C41.4011 72.5908 41.5439 74.0296 41.6873 75.4674C41.7515 76.1138 41.9078 76.8188 41.8869 77.4693C41.859 78.3376 41.5519 79.245 41.4681 80.1286C41.3843 80.983 41.4109 81.8415 41.972 82.5437C42.402 83.0812 43.0176 83.3464 43.3806 83.969C43.9962 85.0258 44.3243 86.8364 45.5332 87.3766C47.0074 88.0355 48.9422 87.6767 50.112 86.5865C50.4764 86.2472 50.7975 85.781 50.7165 85.291C50.6551 84.9141 50.3731 84.6167 50.1037 84.3459C49.5229 83.7615 48.9427 83.177 48.3629 82.5926C47.8966 82.1221 47.1484 81.5986 46.8552 80.9997C46.797 80.8798 46.7466 80.7563 46.7044 80.6298Z" fill="#E58741"/>
<path d="M48.2719 82.8392C49.2156 82.9341 50.1718 83.3501 50.7023 84.1361C51.4464 85.2389 51.1211 86.8568 50.1439 87.7531C49.1137 88.6953 47.7233 88.7917 46.4194 88.5264C45.0904 88.2556 44.5655 87.4445 43.8759 86.2929C43.379 85.4553 43.5339 85.0714 44.2082 84.3678C44.7305 83.8286 45.3659 83.4119 46.0685 83.1476C46.7712 82.8833 47.5237 82.778 48.2719 82.8392Z" fill="#E58741"/>
<path d="M57.5079 87.2323C57.6889 87.4345 57.8864 87.6213 58.0984 87.7907C59.3031 88.7567 61.4236 89.1322 62.7624 88.2095C63.3508 87.8105 63.814 87.2529 64.0984 86.6013C64.3901 85.9033 64.0146 85.4608 63.6391 84.8382C62.869 83.5644 61.9649 82.3766 60.942 81.2952C59.7457 80.0304 58.1501 78.1584 56.225 78.3943C54.9923 78.5451 53.8839 79.7554 53.8867 81.0244C53.8867 81.714 54.4982 82.4106 54.8332 82.9787L56.2166 85.3324C56.6047 85.9941 57.0026 86.6641 57.5079 87.2323Z" fill="#E58741"/>
<path d="M59.9613 80.6298C59.5676 79.4795 59.703 77.9956 59.6667 76.8453C59.6123 75.1324 59.8761 73.3553 59.985 71.6424L60.4038 64.9976L54.0088 66.0557L54.5155 71.1511C54.6579 72.5908 54.8008 74.0296 54.9441 75.4674C55.0083 76.1138 55.1661 76.8188 55.1437 77.4693C55.1158 78.3376 54.8101 79.245 54.7249 80.1286C54.6412 80.983 54.6663 81.8415 55.2275 82.5437C55.6588 83.0812 56.2731 83.3464 56.636 83.969C57.2517 85.0258 57.5797 86.8364 58.7886 87.3766C60.2628 88.0355 62.199 87.6767 63.3689 86.5865C63.7318 86.2472 64.0529 85.781 63.9733 85.291C63.9119 84.9141 63.6285 84.6167 63.3591 84.3459C62.7793 83.7615 62.199 83.177 61.6183 82.5926C61.152 82.1221 60.4038 81.5986 60.1106 80.9997C60.0541 80.8793 60.0042 80.7558 59.9613 80.6298Z" fill="#E58741"/>
<path d="M61.5298 82.8392C62.4735 82.9341 63.4297 83.3501 63.9602 84.1361C64.7057 85.2389 64.379 86.8568 63.4018 87.7531C62.3702 88.6954 60.9798 88.7917 59.6759 88.5264C58.347 88.2556 57.8221 87.4445 57.1339 86.2929C56.6355 85.4553 56.7904 85.0714 57.4647 84.3678C57.9874 83.8286 58.623 83.4119 59.3258 83.1476C60.0287 82.8833 60.7814 82.778 61.5298 82.8392Z" fill="#E58741"/>
<path d="M45.2219 44.8562C46.5838 44.8534 47.9067 45.3098 48.9771 46.1517C49.5216 46.5886 50.0241 47.2685 49.798 47.933C49.5314 48.7078 48.5151 48.8488 47.6956 48.8557C45.9911 48.8697 44.1052 49.1182 42.4174 48.9074C41.1973 48.7552 39.9828 47.2517 38.8074 47.2517C36.8767 46.5244 30.3156 43.9321 32.9819 41.0201C34.5427 39.3114 36.2374 40.403 37.7981 41.3216C38.4109 41.6818 42.8474 45.3406 43.1028 45.2415C43.7793 44.9831 44.4978 44.8525 45.2219 44.8562Z" fill="#E58741"/>
<path d="M9.3873 91.5552H7.61719V63.4973H12.4417L9.3873 91.5552Z" fill="#965114"/>
<path d="M88.6673 91.5552H86.8972L83.8428 63.4973H88.6673V91.5552Z" fill="#965114"/>
<path d="M88.6683 54.3518H7.33398V72.1981H88.6683V54.3518Z" fill="#BA793E"/>
<path d="M93.5329 52.6784H2.47559L7.11724 46.2219H88.9918L93.5329 52.6784Z" fill="#BA793E"/>
<path d="M93.5329 52.6782H2.47559V57.4539H93.5329V52.6782Z" fill="#A15A1C"/>
<path d="M25.7036 50.2787L30.362 47.3625L12.5255 45.813L6.53809 48.3425L25.7036 50.2787Z" fill="#E58741"/>
<path d="M6.22559 45.566L6.33168 48.6163L25.7038 50.2789V47.2705L6.53829 45.3357L6.22559 45.566Z" fill="#E58741"/>
<path d="M25.7036 47.2697L30.362 44.3535L12.5255 42.804L6.53809 45.3349L25.7036 47.2697Z" fill="#E58741"/>
<path d="M25.7031 47.2697L29.8562 44.6704V47.3256L25.7031 49.9863V47.2697Z" fill="#EEAC1F"/>
<path d="M26.967 48.2835C26.565 48.3756 26.1965 48.6562 25.8419 48.8572C25.7595 48.9047 25.8321 49.0247 25.9159 48.9829C26.2816 48.8028 26.7172 48.6548 27.0187 48.3728C27.0273 48.3646 27.033 48.3537 27.0347 48.3419C27.0364 48.3301 27.0341 48.3181 27.0281 48.3077C27.0222 48.2974 27.0129 48.2894 27.0018 48.285C26.9907 48.2806 26.9785 48.2801 26.967 48.2835Z" fill="#D9C594"/>
<path d="M29.479 45.9666C28.4739 46.465 27.4339 47.0024 26.4762 47.5874C26.4531 47.6007 26.4362 47.6227 26.4292 47.6484C26.4223 47.6742 26.4259 47.7017 26.4392 47.7249C26.4525 47.748 26.4745 47.7649 26.5003 47.7718C26.5261 47.7788 26.5536 47.7752 26.5767 47.7619C27.5986 47.2942 28.6274 46.7344 29.6046 46.1802C29.7372 46.1062 29.6186 45.8954 29.479 45.9666Z" fill="#D9C594"/>
<path d="M77.7677 47.4368L85.6467 28.1946H56.5264L48.6475 47.4368H77.7677Z" fill="#4C6478"/>
<path d="M79.1754 47.4368L87.0543 28.1946H57.9327L50.0537 47.4368H79.1754Z" fill="#31404D"/>
<path d="M39.0576 49.4495H78.3546L79.1726 47.4365H39.0576V49.4495Z" fill="#4C6478"/>
<path d="M40.7568 49.4495H78.3912L79.1743 47.4365H40.7568V49.4495Z" fill="#31404D"/>
<path d="M71.8197 39.0239C71.4302 40.7242 69.8528 41.8158 68.2977 41.4571C66.7425 41.0983 65.7974 39.4315 66.1939 37.7298C66.5904 36.0281 68.1622 34.9378 69.7174 35.2966C71.2725 35.6553 72.2106 37.3221 71.8197 39.0239Z" fill="#4C6478"/>
</svg>
