<svg width="100" height="99" viewBox="0 0 100 99" fill="none" xmlns="http://www.w3.org/2000/svg">
<path d="M50 98.5618C77.6142 98.5618 100 95.4317 100 91.5705C100 87.7093 77.6142 84.5792 50 84.5792C22.3858 84.5792 0 87.7093 0 91.5705C0 95.4317 22.3858 98.5618 50 98.5618Z" fill="#B8D2DB"/>
<path d="M47.9731 81.3275L37.2412 85.2081L37.7921 86.7317L48.524 82.851L47.9731 81.3275Z" fill="#2A2A29"/>
<path d="M39.7106 87.1367C39.7106 88.259 38.8532 89.1746 37.7964 89.1746C36.7397 89.1746 35.8823 88.2648 35.8823 87.1367C35.8823 86.0086 36.7382 85.0989 37.7964 85.0989C38.8547 85.0989 39.7106 86.0145 39.7106 87.1367Z" fill="#2A2A29"/>
<path d="M51.1808 81.3341L50.6299 82.8577L61.3617 86.7383L61.9127 85.2148L51.1808 81.3341Z" fill="#2A2A29"/>
<path d="M59.4404 87.1367C59.4404 88.259 60.2978 89.1746 61.3546 89.1746C62.4113 89.1746 63.2687 88.2648 63.2687 87.1367C63.2687 86.0086 62.4113 85.0989 61.3546 85.0989C60.2978 85.0989 59.4404 86.0145 59.4404 87.1367Z" fill="#2A2A29"/>
<path d="M51.3581 68.1615H47.4658V83.0436H51.3581V68.1615Z" fill="#2A2A29"/>
<path d="M49.6855 88.2489H49.0756L48.4468 81.6885H50.4133L49.6855 88.2489Z" fill="#2A2A29"/>
<path d="M51.3766 89.6695C51.3772 90.0549 51.2634 90.4318 51.0497 90.7525C50.836 91.0732 50.5319 91.3233 50.176 91.4711C49.8201 91.6189 49.4284 91.6578 49.0503 91.5829C48.6723 91.5079 48.325 91.3225 48.0524 91.0501C47.7798 90.7777 47.5941 90.4306 47.5189 90.0526C47.4437 89.6746 47.4823 89.2828 47.6298 88.9268C47.7774 88.5708 48.0272 88.2665 48.3478 88.0526C48.6683 87.8386 49.0451 87.7246 49.4305 87.7249C49.9463 87.7252 50.4408 87.9302 50.8057 88.2948C51.1705 88.6593 51.3759 89.1538 51.3766 89.6695V89.6695Z" fill="#2A2A29"/>
<path d="M61.8236 64.725C61.8236 66.6464 56.2749 68.2039 49.4306 68.2039C42.5864 68.2039 37.0361 66.6464 37.0361 64.725C37.0361 62.8036 42.5849 61.2461 49.4306 61.2461C56.2763 61.2461 61.8236 62.8036 61.8236 64.725Z" fill="#2A2A29"/>
<path d="M61.8236 62.3202C61.8236 64.2416 56.2749 65.7991 49.4306 65.7991C42.5864 65.7991 37.0361 64.2416 37.0361 62.3202C37.0361 60.3988 42.5849 58.8413 49.4306 58.8413C56.2763 58.8413 61.8236 60.3988 61.8236 62.3202Z" fill="#575756"/>
<path d="M66.229 37.6987L70.753 43.1252C70.753 43.1252 71.9626 47.5503 67.9874 46.6522L63.2261 43.1936L66.229 37.6987Z" fill="#E58741"/>
<path d="M33.6738 37.2693L29.1483 42.6958C29.1483 42.6958 27.9402 47.1208 31.914 46.2227L36.6811 42.7656L33.6738 37.2693Z" fill="#E58741"/>
<path d="M54.6659 29.4614H55.6615L59.171 30.2038C59.171 30.2038 61.6586 31.2227 62.4577 32.0888L67.302 36.5706L63.1011 43.8108L59.171 42.6041C59.171 42.6041 59.909 49.3261 59.171 53.8122H41.005C40.267 49.3304 41.005 42.6041 41.005 42.6041L37.0749 43.8108L32.874 36.5706L37.7183 32.0888C38.5159 31.2271 41.005 30.2038 41.005 30.2038L44.5072 29.4614H54.6659Z" fill="#E58741"/>
<g style="mix-blend-mode:multiply">
<path d="M47.962 31.7394C48.8877 32.0378 49.8135 32.2488 50.7946 32.1397C52.2303 31.987 53.5783 31.3743 54.6374 30.3929H45.585C46.109 31.0902 47.2211 31.4992 47.962 31.7394Z" fill="#D9D9D9"/>
</g>
<path d="M54.6659 29.4614H55.6615L59.171 30.2038C59.171 30.2038 61.6586 31.2227 62.4577 32.0888L67.302 36.5706L63.1011 43.8108L59.171 42.6041C59.171 42.6041 59.909 49.3261 59.171 53.8122H41.005C40.267 49.3304 41.005 42.6041 41.005 42.6041L37.0749 43.8108L32.874 36.5706L37.7183 32.0888C38.5159 31.2271 41.005 30.2038 41.005 30.2038L44.5072 29.4614H45.5028C45.5028 29.4614 44.8071 33.8151 50.0836 34.2445C50.0836 34.2431 54.743 34.1572 54.6659 29.4614Z" fill="#00AFB0"/>
<g style="mix-blend-mode:multiply">
<path d="M49.3125 52.7074C44.2791 52.0495 40.3518 49.1339 39.7055 44.1354C39.5163 46.3319 39.2689 50.6361 39.8511 53.8079H59.7609C59.8913 53.0646 59.9822 52.3148 60.0331 51.5619C56.7521 53.0772 52.3358 53.1019 49.3125 52.7074Z" fill="#ECECEC"/>
</g>
<g style="mix-blend-mode:multiply">
<path d="M55.1745 30.5327C55.1221 31.9287 57.0522 31.3348 57.7655 31.4803C58.4118 31.6128 58.8441 32.1543 59.109 32.7904C59.5457 33.8428 59.419 34.5546 60.3856 35.2271C60.9678 35.6288 61.5937 35.9753 62.1236 36.4614C63.4336 37.6579 63.47 39.591 63.5209 41.3319C63.5437 41.9338 63.5306 42.5365 63.4816 43.1368L67.2939 36.5648L62.4496 32.083C61.6447 31.2271 59.1701 30.2038 59.1701 30.2038L55.6607 29.4614H54.665C54.665 29.5284 54.665 29.591 54.665 29.6565C54.962 29.7744 55.192 30.0655 55.1745 30.5327Z" fill="#ECECEC"/>
</g>
<g style="mix-blend-mode:multiply">
<path d="M37.7372 35.9054C39.4985 32.5444 42.5538 31.4789 45.3136 29.46H44.5072L41.005 30.2038C41.005 30.2038 38.5159 31.2227 37.7183 32.0888L32.874 36.5706L37.0749 43.8108L37.5421 43.6652C36.596 41.1776 36.4548 38.3508 37.7372 35.9054Z" fill="#ECECEC"/>
</g>
<path d="M61.5889 23.6028V18.2957C62.4128 7.97542 52.5117 6.59551 50.5627 6.69012C48.6151 6.59551 38.2832 7.97542 39.5379 18.2957V23.6028C39.5379 23.6028 39.4622 29.8415 46.2046 30.3874H54.9222C61.6646 29.8415 61.5889 23.6028 61.5889 23.6028Z" fill="#E58741"/>
<path d="M64.3186 22.505C64.3186 22.8819 64.2068 23.2504 63.9974 23.5637C63.7879 23.8771 63.4903 24.1213 63.142 24.2655C62.7938 24.4097 62.4106 24.4473 62.0409 24.3737C61.6713 24.3 61.3318 24.1184 61.0654 23.8518C60.799 23.5852 60.6176 23.2455 60.5442 22.8758C60.4709 22.5061 60.5088 22.123 60.6533 21.7748C60.7977 21.4267 61.0422 21.1292 61.3557 20.92C61.6692 20.7108 62.0377 20.5993 62.4147 20.5996C62.6648 20.5996 62.9125 20.6489 63.1436 20.7447C63.3747 20.8404 63.5846 20.9808 63.7614 21.1578C63.9383 21.3347 64.0785 21.5448 64.1741 21.7759C64.2697 22.0071 64.3188 22.2548 64.3186 22.505V22.505Z" fill="#E58741"/>
<g style="mix-blend-mode:multiply">
<g style="mix-blend-mode:multiply">
<path d="M62.5514 23.511C62.6013 23.4919 62.65 23.4695 62.6969 23.444C62.7532 23.4112 62.8077 23.3752 62.86 23.3363C62.9174 23.2893 62.9706 23.2372 63.0186 23.1805C63.0714 23.1207 63.1169 23.0547 63.154 22.984C63.1919 22.9109 63.2217 22.8337 63.2428 22.7541C63.2524 22.7152 63.2596 22.6758 63.2646 22.6361C63.2703 22.5927 63.2737 22.549 63.2748 22.5051C63.2738 22.3376 63.2324 22.1728 63.154 22.0248C63.1169 21.9545 63.0719 21.8886 63.0201 21.8283C62.9715 21.7716 62.9179 21.7195 62.86 21.6725C62.8077 21.6336 62.7532 21.5977 62.6969 21.5648C62.6431 21.5386 62.595 21.5139 62.5514 21.4979C62.5181 21.484 62.4841 21.4718 62.4495 21.4615L62.4131 21.4484L62.4509 21.4396C62.486 21.4292 62.5221 21.4228 62.5586 21.4207C62.6177 21.4141 62.6772 21.4141 62.7362 21.4207C62.8139 21.429 62.8902 21.4471 62.9633 21.4746C63.0527 21.5065 63.137 21.5511 63.2137 21.607C63.3015 21.6705 63.3791 21.7471 63.4437 21.8341C63.5133 21.9286 63.5683 22.0332 63.6067 22.1442C63.6647 22.3175 63.6796 22.5023 63.6503 22.6827C63.6402 22.7444 63.6257 22.8052 63.6067 22.8647C63.5689 22.9759 63.5139 23.0805 63.4437 23.1747C63.3791 23.2617 63.3015 23.3383 63.2137 23.4018C63.1373 23.4578 63.0535 23.5029 62.9648 23.5357C62.8911 23.5628 62.8143 23.5804 62.7362 23.5881C62.6777 23.5946 62.6186 23.5946 62.5601 23.5881C62.5233 23.5845 62.4868 23.5782 62.4509 23.5692L62.4131 23.559L62.4495 23.5459C62.484 23.536 62.518 23.5244 62.5514 23.511V23.511Z" fill="#D9D9D9"/>
</g>
<g style="mix-blend-mode:multiply">
<path d="M62.1516 21.9127C62.2818 21.9124 62.4091 21.9508 62.5175 22.0229C62.6259 22.095 62.7105 22.1977 62.7605 22.3179C62.8105 22.4381 62.8237 22.5704 62.7985 22.6981C62.7733 22.8258 62.7108 22.9432 62.6188 23.0354C62.5268 23.1275 62.4096 23.1903 62.2819 23.2158C62.1543 23.2413 62.0219 23.2284 61.9016 23.1786C61.7813 23.1289 61.6785 23.0446 61.6061 22.9363C61.5337 22.8281 61.4951 22.7008 61.4951 22.5707C61.4955 22.3965 61.5647 22.2296 61.6877 22.1064C61.8107 21.9831 61.9775 21.9135 62.1516 21.9127V21.9127Z" fill="#D9D9D9"/>
</g>
</g>
<path d="M37.0059 22.505C37.0059 22.8819 37.1176 23.2504 37.3271 23.5637C37.5365 23.8771 37.8342 24.1213 38.1824 24.2655C38.5307 24.4097 38.9139 24.4473 39.2835 24.3737C39.6532 24.3 39.9927 24.1184 40.2591 23.8518C40.5255 23.5852 40.7068 23.2455 40.7802 22.8758C40.8536 22.5061 40.8156 22.123 40.6712 21.7748C40.5267 21.4267 40.2823 21.1292 39.9688 20.92C39.6552 20.7108 39.2867 20.5993 38.9098 20.5996C38.6596 20.5996 38.4119 20.6489 38.1808 20.7447C37.9498 20.8404 37.7398 20.9808 37.563 21.1578C37.3862 21.3347 37.246 21.5448 37.1504 21.7759C37.0548 22.0071 37.0057 22.2548 37.0059 22.505V22.505Z" fill="#E58741"/>
<g style="mix-blend-mode:multiply">
<g style="mix-blend-mode:multiply">
<path d="M38.7747 23.5108C38.7247 23.4918 38.6761 23.4694 38.6291 23.4439C38.5723 23.4111 38.5174 23.3751 38.4646 23.3362C38.4071 23.2892 38.354 23.237 38.306 23.1804C38.2536 23.1205 38.2087 23.0545 38.172 22.9839C38.1336 22.9108 38.1034 22.8337 38.0818 22.7539C38.0731 22.7132 38.0643 22.671 38.06 22.636C38.0548 22.5925 38.0519 22.5488 38.0512 22.505C38.0509 22.3375 38.0919 22.1725 38.1706 22.0247C38.2082 21.9543 38.2536 21.8884 38.306 21.8282C38.354 21.7715 38.4071 21.7194 38.4646 21.6724C38.5174 21.6334 38.5723 21.5975 38.6291 21.5647C38.683 21.5385 38.7295 21.5137 38.7747 21.4977C38.8074 21.4836 38.8409 21.4715 38.8751 21.4613L38.9115 21.4482L38.8751 21.4395C38.84 21.4292 38.8039 21.4228 38.7674 21.4206C38.7079 21.414 38.6478 21.414 38.5883 21.4206C38.5107 21.4289 38.4344 21.447 38.3613 21.4744C38.2724 21.5064 38.1885 21.551 38.1124 21.6069C38.0242 21.67 37.9466 21.7466 37.8824 21.834C37.8122 21.9282 37.7571 22.0328 37.7193 22.144C37.6812 22.2606 37.661 22.3823 37.6597 22.505C37.6608 22.5645 37.6661 22.6239 37.6757 22.6826C37.6844 22.7445 37.699 22.8054 37.7193 22.8645C37.7567 22.9757 37.8112 23.0803 37.8809 23.1746C37.9459 23.2613 38.0234 23.3378 38.1109 23.4017C38.1876 23.458 38.2719 23.5031 38.3613 23.5356C38.4344 23.5626 38.5107 23.5802 38.5883 23.588C38.6469 23.5945 38.7059 23.5945 38.7645 23.588C38.8018 23.5844 38.8387 23.5781 38.8751 23.5691L38.9115 23.5589L38.8751 23.5458C38.841 23.5359 38.8075 23.5242 38.7747 23.5108V23.5108Z" fill="#D9D9D9"/>
</g>
<g style="mix-blend-mode:multiply">
<path d="M39.1731 21.9126C39.0429 21.9126 38.9157 21.9512 38.8075 22.0235C38.6993 22.0958 38.615 22.1985 38.5652 22.3188C38.5154 22.439 38.5024 22.5713 38.5278 22.6989C38.5532 22.8265 38.6158 22.9437 38.7078 23.0358C38.7999 23.1278 38.9171 23.1904 39.0447 23.2158C39.1723 23.2412 39.3046 23.2282 39.4248 23.1784C39.5451 23.1286 39.6478 23.0443 39.7201 22.9361C39.7924 22.8279 39.831 22.7007 39.831 22.5705C39.8306 22.3962 39.7612 22.229 39.6379 22.1057C39.5146 21.9824 39.3474 21.913 39.1731 21.9126V21.9126Z" fill="#D9D9D9"/>
</g>
</g>
<path d="M47.498 28.9186C47.7306 29.5363 48.146 30.0685 48.6887 30.4441C49.2315 30.8197 49.8758 31.0209 50.5359 31.0209C51.1959 31.0209 51.8403 30.8197 52.3831 30.4441C52.9258 30.0685 53.3412 29.5363 53.5737 28.9186H47.498Z" fill="#E58741"/>
<g style="mix-blend-mode:multiply">
<path d="M45.1103 28.4934C44.6263 28.037 44.2023 27.521 43.8483 26.9578C43.2834 26.3402 42.8206 25.6366 42.4771 24.8734C40.8556 21.476 41.202 17.7773 42.2282 14.2474C42.7289 12.5284 43.3738 10.8996 44.4218 9.43522C44.6554 8.86181 44.9616 8.32075 45.333 7.82532C42.103 9.21979 38.7974 12.1921 39.5383 18.2955V23.6026C39.5383 23.6026 39.4626 29.8413 46.2049 30.3872H47.9327C46.8977 29.9091 45.9451 29.2699 45.1103 28.4934Z" fill="#ECECEC"/>
</g>
<g style="mix-blend-mode:multiply">
<path d="M47.1703 7.99417C47.2553 7.98178 47.3421 7.99182 47.4221 8.02329C49.0844 7.53711 50.818 7.31732 52.4803 7.5604C52.1659 7.26928 51.8369 6.98835 51.4934 6.72489C51.1845 6.69286 50.8737 6.68119 50.5633 6.68995C49.5692 6.68914 48.5792 6.81535 47.6171 7.0655C47.3027 7.39301 46.9898 7.72489 46.6855 8.06259C46.7069 8.06784 46.7278 8.07465 46.7481 8.08297C46.8871 8.04543 47.028 8.01579 47.1703 7.99417V7.99417Z" fill="#ECECEC"/>
</g>
<path d="M38.9098 20.5996L39.8312 22.5705C39.8312 22.5705 40.3451 16.4147 40.3451 15.6971C40.3451 9.58359 46.6478 9.71314 46.6478 9.71314L48.9404 5.30702C44.789 4.18621 40.8167 6.96496 40.8167 6.96496C40.8167 6.96496 36.3043 9.84269 38.15 20.7583C38.394 20.6681 38.6501 20.6146 38.9098 20.5996Z" fill="#1C1C1B"/>
<path d="M39.831 22.5706C39.831 22.5706 39.8193 21.5226 39.879 19.9592C39.9096 19.1747 39.9314 18.2693 39.9824 17.2984C40.0086 16.8137 40.0275 16.313 40.061 15.8035C40.0799 15.5269 40.0697 15.2897 40.093 15.0146L40.1323 14.6041L40.1993 14.2023C40.3039 13.6676 40.4807 13.1495 40.7247 12.6623C40.9664 12.19 41.283 11.7598 41.6621 11.3886C42.3295 10.7457 43.1426 10.2737 44.0319 10.0131C44.6464 9.82678 45.2824 9.72061 45.9242 9.69724C46.1668 9.68528 46.41 9.69063 46.652 9.71325C46.4141 9.73303 46.1775 9.76558 45.9431 9.81077C45.3306 9.92086 44.7307 10.0925 44.1527 10.3231C43.3509 10.6374 42.6262 11.1204 42.0275 11.7394C41.7036 12.0884 41.4328 12.4833 41.224 12.9112C41.0087 13.3551 40.8544 13.8262 40.7655 14.3115L40.7 14.6798L40.6549 15.0509C40.6287 15.294 40.6345 15.575 40.6141 15.8108C40.5777 16.3261 40.5268 16.8297 40.4846 17.3217C40.4423 17.8137 40.3929 18.2853 40.3477 18.7336C40.3026 19.182 40.256 19.607 40.2022 19.9913C40.01 21.5386 39.831 22.5706 39.831 22.5706Z" fill="#101010"/>
<path d="M45.8619 15.8997C45.7498 16.0759 45.4936 16.1152 45.2796 16.0453C44.9626 15.9499 44.6254 15.9436 44.305 16.0271C43.9846 16.1105 43.6933 16.2805 43.463 16.5184C43.3058 16.677 43.0627 16.7673 42.8808 16.6639C42.6974 16.5678 42.6872 16.2272 42.9245 15.9885C43.251 15.6519 43.6637 15.4115 44.1175 15.2934C44.5713 15.1754 45.0488 15.1842 45.498 15.3189C45.824 15.4165 45.9783 15.7134 45.8648 15.8866L45.8619 15.8997Z" fill="#1C1C1B"/>
<g style="mix-blend-mode:multiply">
<path d="M43.0029 16.3611C43.3291 16.0242 43.7418 15.7834 44.1956 15.665C44.6495 15.5467 45.1271 15.5553 45.5764 15.6901C45.6889 15.7239 45.7897 15.7884 45.8675 15.8764C45.9534 15.7017 45.8006 15.4266 45.4891 15.3335C45.0399 15.1987 44.5624 15.1899 44.1086 15.308C43.6547 15.426 43.2421 15.6665 42.9155 16.003C42.6972 16.2272 42.6899 16.5271 42.834 16.6493C42.8631 16.5397 42.9215 16.4401 43.0029 16.3611V16.3611Z" fill="#ECECEC"/>
</g>
<path d="M55.0223 15.8996C55.1358 16.0757 55.3905 16.115 55.6045 16.0452C55.9226 15.95 56.2608 15.9444 56.5819 16.0292C56.9029 16.114 57.1943 16.2857 57.424 16.5255C57.5827 16.6842 57.8243 16.7744 58.0062 16.6711C58.1911 16.575 58.1998 16.2344 57.964 15.9957C57.6372 15.6591 57.2243 15.4187 56.7702 15.3006C56.3162 15.1826 55.8384 15.1914 55.3891 15.3261C55.0645 15.4236 54.9087 15.7206 55.0223 15.8938V15.8996Z" fill="#1C1C1B"/>
<g style="mix-blend-mode:multiply">
<path d="M57.881 16.3611C57.5548 16.024 57.1422 15.7831 56.6883 15.6647C56.2344 15.5464 55.7567 15.5551 55.3075 15.69C55.1947 15.7233 55.0938 15.7879 55.0163 15.8764C54.9305 15.7017 55.0833 15.4266 55.3933 15.3334C55.8427 15.1987 56.3205 15.1899 56.7745 15.308C57.2285 15.426 57.6415 15.6664 57.9683 16.003C58.1852 16.2272 58.1925 16.527 58.0498 16.6493C58.0206 16.5397 57.9623 16.4401 57.881 16.3611V16.3611Z" fill="#ECECEC"/>
</g>
<g style="mix-blend-mode:multiply">
<path d="M46.2358 9.64197C46.2358 9.64197 49.2242 14.6871 59.0597 11.5983L57.3479 10.2883L46.2358 9.64197Z" fill="#D9D9D9"/>
</g>
<path d="M61.5892 20.8034L60.681 22.5705L60.5077 16.4061C60.5077 9.78306 53.8644 9.71028 53.8644 9.71028L51.5718 5.30708C55.7232 4.18626 59.6941 7.32018 59.6941 7.32018C59.6941 7.32018 63.9764 9.27505 62.4146 20.5997C62.4146 20.5997 61.8993 20.5997 61.5892 20.8034Z" fill="#1C1C1B"/>
<path d="M59.6943 7.32031C59.9696 7.44111 60.2236 7.60525 60.4469 7.80648C60.6724 8.00698 60.8821 8.22451 61.0742 8.45714C61.2591 8.69663 61.4288 8.94748 61.5823 9.20823L61.8079 9.6027C61.8734 9.73807 61.9316 9.87781 61.9942 10.0146L62.1776 10.4295L62.3232 10.8574L62.4687 11.2941C62.5153 11.4397 62.5415 11.5852 62.5793 11.7308C62.6448 12.0219 62.7322 12.313 62.7729 12.6114L62.9025 13.5037C62.9437 13.8005 62.969 14.0994 62.9782 14.3989C62.9927 14.69 63.0233 14.9957 63.0233 15.2941C63.0233 15.5925 63.0233 15.8924 63.0117 16.1908C63 16.4892 63.0117 16.7876 62.9767 17.0845L62.8952 17.9739C62.8646 18.265 62.8501 18.5663 62.7933 18.8589C62.6963 19.447 62.5954 20.0321 62.4905 20.6143L62.4775 20.6813H62.4178C62.2783 20.6751 62.1386 20.6804 62 20.6973C61.9295 20.7026 61.8595 20.7128 61.7904 20.7279C61.7218 20.7463 61.655 20.7712 61.591 20.8021C61.6496 20.7596 61.712 20.7226 61.7773 20.6915C61.8432 20.6591 61.9113 20.6314 61.9811 20.6085C62.1237 20.5673 62.2699 20.5395 62.4178 20.5256L62.345 20.5881C62.3683 19.9952 62.3993 19.4062 62.4382 18.821C62.4629 18.5299 62.4556 18.2388 62.4673 17.9389L62.4876 17.0656C62.5066 16.7745 62.4876 16.4833 62.4876 16.1922C62.4876 15.9011 62.4731 15.61 62.4731 15.3189C62.4731 15.0277 62.4338 14.7366 62.4163 14.4455L62.3843 14.0088C62.3788 13.8626 62.3652 13.7168 62.3435 13.5721L62.23 12.709C62.1921 12.4178 62.1194 12.1398 62.0684 11.8545C62.0393 11.709 62.0189 11.5634 61.9811 11.4295L61.8632 11.0117L61.7496 10.5925L61.6041 10.1864C61.5531 10.051 61.508 9.91274 61.4585 9.77883L61.2664 9.37417C61.1436 9.11193 61.0071 8.85636 60.8574 8.60852L60.6128 8.25044C60.5313 8.12963 60.4294 8.02628 60.3406 7.90983C60.1527 7.68513 59.9353 7.48683 59.6943 7.32031V7.32031Z" fill="#101010"/>
<path d="M45.098 9.01892C45.098 9.01892 51.6482 13.2955 58.9597 10.3639C58.9597 10.3639 62.2785 8.72344 63.0354 7.00291C63.0354 7.00291 60.5027 7.20233 59.8957 6.65357C59.8957 6.65357 62.2654 5.80058 62.4081 2.74236C62.4081 2.74236 59.5915 3.47016 58.2072 2.74236C58.2072 2.74236 59.1228 1.73945 58.9583 0C57.2785 1.28093 55.1883 2.17322 53.0646 2.12955C48.9234 2.04367 43.8142 3.82387 45.098 9.01892Z" fill="#1C1C1B"/>
<path d="M58.9639 0C58.9639 0 58.7383 0.190684 58.3351 0.515284C58.1211 0.660844 57.8679 0.85444 57.5564 1.04076L57.0542 1.33188C56.8766 1.43377 56.6772 1.51528 56.4719 1.61427C56.2609 1.71508 56.0441 1.80354 55.8227 1.87919L55.4734 2.00728L55.1022 2.1048L54.7208 2.2067C54.5913 2.23581 54.4559 2.25182 54.322 2.27657L53.9115 2.34207C53.766 2.35662 53.6306 2.35808 53.4879 2.36681L53.0571 2.38719H52.6379C52.3628 2.39738 52.0804 2.41194 51.7965 2.43377C51.2244 2.47857 50.6559 2.56172 50.0949 2.68268C49.5356 2.79595 48.9872 2.95764 48.4559 3.16594C47.9441 3.36391 47.4559 3.61827 47.0003 3.92431C46.5793 4.20865 46.2047 4.55626 45.8897 4.95488C45.6117 5.31547 45.3926 5.71784 45.2405 6.14702C45.1172 6.51837 45.0376 6.90281 45.0032 7.29258C44.9808 7.59784 44.9808 7.90434 45.0032 8.20961C45.0134 8.3377 45.0222 8.45124 45.0309 8.55168C45.0396 8.65211 45.0556 8.73508 45.0658 8.8035L45.0949 9.0131C45.0949 9.0131 45.0731 8.94178 45.0353 8.80932C44.9749 8.6184 44.9263 8.42395 44.8897 8.22708C44.8287 7.91769 44.795 7.60351 44.7893 7.28821C44.7821 6.87257 44.8311 6.45786 44.9348 6.05531C45.0612 5.57233 45.271 5.11518 45.5549 4.70451C45.8737 4.24653 46.2674 3.84549 46.7194 3.5182C47.1934 3.16937 47.7087 2.88042 48.2536 2.65793C48.8126 2.432 49.3902 2.2552 49.9799 2.12955C50.5676 2.00846 51.1629 1.92773 51.7616 1.88792C52.0527 1.86608 52.3438 1.86026 52.6437 1.86172L53.0716 1.87045H53.4748C53.6088 1.87045 53.7412 1.87045 53.8722 1.86026L54.2609 1.81659C54.3904 1.80204 54.5171 1.7933 54.6422 1.77293L55.0105 1.69724L55.3686 1.623L55.7107 1.52256C55.9295 1.46635 56.1448 1.39734 56.3555 1.31587C56.5578 1.23726 56.7572 1.17031 56.9377 1.09025L57.453 0.855895C57.7732 0.710335 58.0353 0.545852 58.2711 0.427948L58.9639 0Z" fill="#101010"/>
<g style="mix-blend-mode:soft-light" opacity="0.3">
<path d="M46.6216 7.82524C46.6216 7.82524 53.1718 12.5094 62.1514 7.32015C62.1514 7.32015 60.5051 8.78448 57.8006 7.32015C57.8006 7.32015 60.7671 6.04649 61.2257 3.85144C61.2257 3.85144 58.4891 6.23135 55.0743 5.23281C55.0743 5.23281 56.0655 6.4264 57.6347 6.09307C57.6347 6.09307 55.7133 9.88929 46.6216 7.82524Z" fill="white"/>
</g>
<g style="mix-blend-mode:soft-light" opacity="0.3">
<path d="M43.9712 6.42798C43.9712 6.42798 39.4341 7.07281 38.2842 13.4469C38.2842 13.4469 39.1022 11.0743 39.8315 10.6813C39.8315 10.6813 38.2303 13.9243 38.9115 19.1034C38.9115 19.1034 38.715 10.4542 43.683 8.68999C43.683 8.68999 41.8038 8.99712 40.8169 9.83991C40.8169 9.84283 41.1284 7.82536 43.9712 6.42798Z" fill="white"/>
</g>
<g style="mix-blend-mode:soft-light" opacity="0.3">
<path d="M59.2473 9.25464C59.2473 9.25464 62.7408 10.914 62.013 15.9359C62.013 15.9359 61.7219 13.9097 61.2692 13.4395C61.2692 13.4395 62.275 16.3507 61.0872 20.0247C61.0872 20.0247 62.1556 13.5472 58.9038 11.0101C58.9038 11.0101 60.2255 11.7015 60.751 12.5705C60.7495 12.5763 61.0159 10.9941 59.2473 9.25464Z" fill="white"/>
</g>
<path d="M29.2083 46.1222C30.4077 46.7539 31.7527 46.9781 33.0656 47.0843C34.1344 47.1753 35.2076 47.203 36.2796 47.1673C37.3247 47.1295 38.3655 46.9373 39.4106 46.9388C39.5562 46.9388 41.6682 47.029 41.661 47.1513L41.8487 44.2896C39.2519 44.569 38.3422 43.9693 38.3422 43.9693C33.038 41.9519 29.4251 42.4977 29.4251 42.4977C29.4251 42.4977 28.5518 42.8747 28.3524 44.3114C28.3465 44.3085 28.3495 45.6709 29.2083 46.1222Z" fill="#E58741"/>
<g style="mix-blend-mode:multiply">
<g style="mix-blend-mode:multiply">
<path d="M38.3368 43.9695C38.3368 43.9695 37.8769 43.8691 37.1971 43.6784C36.8579 43.5808 36.4606 43.476 36.0326 43.3479C35.6047 43.2621 35.1505 43.1602 34.6978 43.0568L34.0224 42.8967L33.3587 42.789C32.922 42.7249 32.529 42.6201 32.1811 42.5867C31.4882 42.5066 31.0166 42.428 31.0166 42.428C31.0166 42.428 31.4839 42.4076 32.1811 42.4149C32.3704 42.4185 32.5594 42.4321 32.7473 42.4557C32.9482 42.4746 33.1593 42.4935 33.3776 42.5226L34.0515 42.6056L34.74 42.7511C35.2 42.8603 35.66 42.9695 36.0879 43.083C36.5057 43.2286 36.89 43.3829 37.2218 43.5066C37.9031 43.7759 38.3368 43.9695 38.3368 43.9695Z" fill="#ECECEC"/>
</g>
</g>
<path d="M41.8489 44.2897C41.8489 44.2897 45.5476 44.4352 46.2302 47.3392C46.2302 47.3392 46.5141 48.0422 45.8241 47.9214C45.8241 47.9214 45.3307 46.8472 44.8052 46.6565C44.8052 46.6565 45.4384 47.9665 45.3147 49.3392C45.3147 49.3392 44.7892 49.7598 44.4748 49.1863C44.4748 49.1863 44.4748 48.1747 44.0381 47.409C44.0381 47.409 44.3802 48.8777 44.0003 49.2606C44.0003 49.2606 43.4471 49.4512 43.3438 48.917L43.1225 47.6929L42.4661 48.5662C42.4661 48.5662 41.8431 48.9098 41.8736 48.1732L42.2244 47.4178C41.828 47.3919 41.4458 47.2596 41.1182 47.0349L41.8489 44.2897Z" fill="#F8AF41"/>
<path d="M70.6947 46.5517C69.4938 47.182 68.1488 47.4062 66.8359 47.5139C65.7671 47.6036 64.6939 47.6309 63.6219 47.5954C62.5783 47.559 61.536 47.3654 60.4924 47.3683C60.3468 47.3683 58.2347 47.4571 58.242 47.5794L58.0601 44.7177C60.6554 44.9971 61.5666 44.3974 61.5666 44.3974C66.8708 42.38 70.4836 42.9258 70.4836 42.9258C70.4836 42.9258 71.357 43.3043 71.5564 44.741C71.5564 44.7453 71.5535 46.1005 70.6947 46.5517Z" fill="#E58741"/>
<g style="mix-blend-mode:multiply">
<g style="mix-blend-mode:multiply">
<path d="M61.5664 44.3975C61.5664 44.3975 62.0031 44.2039 62.6625 43.9477C62.9944 43.8254 63.3786 43.6711 63.7949 43.5241C64.2229 43.412 64.6829 43.3028 65.1428 43.1937L65.8313 43.0481L66.5053 42.9651C66.7251 42.9375 66.942 42.9186 67.137 42.8982C67.3321 42.8778 67.5257 42.8545 67.7032 42.8574C68.4077 42.8574 68.8677 42.8705 68.8677 42.8705C68.8677 42.8705 68.4019 42.9491 67.7032 43.0292C67.3568 43.0641 66.958 43.1747 66.5271 43.233L65.8634 43.3407L65.188 43.5008C64.7353 43.6012 64.2811 43.7046 63.8532 43.7919C63.431 43.9215 63.0337 44.0248 62.6887 44.1223C62.0249 44.2985 61.5664 44.3975 61.5664 44.3975Z" fill="#ECECEC"/>
</g>
</g>
<path d="M58.0598 44.7178C58.0598 44.7178 54.3611 44.8633 53.6784 47.7673C53.6784 47.7673 53.3873 48.4718 54.0846 48.3568C54.0846 48.3568 54.5766 47.2825 55.1035 47.0904C55.1035 47.0904 54.4703 48.4005 54.594 49.7731C54.594 49.7731 55.121 50.1952 55.4354 49.6202C55.4354 49.6202 55.4426 48.6101 55.872 47.8444C55.872 47.8444 55.53 49.3131 55.9099 49.6945C55.9099 49.6945 56.463 49.8866 56.5664 49.351L56.7876 48.1268L57.4441 49.0002C57.4441 49.0002 58.0671 49.3437 58.0351 48.6071L57.6857 47.8517C58.0816 47.826 58.4632 47.6943 58.7905 47.4703L58.0598 44.7178Z" fill="#F8AF41"/>
<path d="M37.4478 64.4831L39.1857 79.5428H43.9281L45.1319 64.1105L37.4478 64.4831Z" fill="#E58741"/>
<path d="M34.7944 58.9594C34.7944 58.9594 33.9647 63.4485 38.3766 64.1108V57.0642C38.3766 57.0642 35.413 57.8459 34.7944 58.9594Z" fill="#0C283E"/>
<path d="M38.3765 57.2722C38.3765 57.2722 35.0519 57.8471 35.8525 64.5327L44.5541 64.1106C44.5541 64.1106 47.3503 55.6463 38.3765 57.2722Z" fill="#F8AF41"/>
<path d="M38.707 75.3931L39.1859 79.543H43.9283L44.2514 75.3931H38.707Z" fill="white"/>
<path d="M36.6638 80.4615C35.8676 80.8691 35.0626 81.4659 34.6463 81.722C33.5153 82.4295 31.035 84.233 32.2912 85.8661C32.2912 85.8749 35.8079 90.4382 41.1252 85.2286C41.1252 85.2286 45.7017 84.1645 44.4236 80.1194C44.4236 80.1194 40.9782 81.396 38.3378 80.1194C37.9346 79.9287 37.3043 80.134 36.6638 80.4615Z" fill="#72241D"/>
<path d="M38.3379 78.7338C40.9784 80.0089 44.4238 78.7338 44.4238 78.7338C45.7018 82.7789 41.1254 83.8415 41.1254 83.8415C35.8081 89.0525 32.2971 84.4892 32.2913 84.4805C31.0351 82.8473 33.9551 81.3291 35.0846 80.6231L38.3379 78.7338Z" fill="#E64645"/>
<g style="mix-blend-mode:multiply">
<path d="M43.0044 80.805C41.9418 81.1398 39.9927 80.1864 39.3727 81.3509C38.936 82.1645 38.7773 83.3552 38.0204 83.9709C36.6871 85.051 34.262 84.7191 33.4134 83.1383C33.2205 82.7821 33.0933 82.3941 33.0379 81.9928C32.1834 82.7089 31.5954 83.5794 32.2911 84.4848C32.2911 84.4935 35.8079 89.0568 41.1252 83.8458C41.1252 83.8458 45.2242 82.8909 44.5764 79.3567C44.4457 79.7041 44.2354 80.016 43.9624 80.2675C43.6894 80.519 43.3613 80.7031 43.0044 80.805V80.805Z" fill="#ECECEC"/>
</g>
<g style="mix-blend-mode:multiply">
<path d="M35.5811 82.2838C35.5811 82.21 35.6029 82.1379 35.644 82.0766C35.685 82.0153 35.7432 81.9675 35.8114 81.9394C35.8796 81.9112 35.9546 81.9039 36.0269 81.9184C36.0992 81.9329 36.1656 81.9685 36.2177 82.0208C36.2698 82.0731 36.3051 82.1396 36.3193 82.212C36.3336 82.2843 36.326 82.3593 36.2975 82.4274C36.2691 82.4954 36.2211 82.5535 36.1597 82.5943C36.0982 82.6351 36.026 82.6567 35.9522 82.6564C35.8537 82.656 35.7593 82.6166 35.6897 82.5467C35.6201 82.4769 35.5811 82.3823 35.5811 82.2838V82.2838Z" fill="#D9D9D9"/>
</g>
<g style="mix-blend-mode:multiply">
<path d="M36.0863 82.2838C36.086 82.3614 36.0615 82.437 36.016 82.4999C35.9706 82.5628 35.9066 82.6099 35.833 82.6346C35.8713 82.6484 35.9116 82.6558 35.9524 82.6564C36.0512 82.6564 36.146 82.6171 36.2159 82.5473C36.2857 82.4774 36.325 82.3826 36.325 82.2838C36.325 82.1849 36.2857 82.0902 36.2159 82.0203C36.146 81.9504 36.0512 81.9111 35.9524 81.9111C35.9116 81.9118 35.8713 81.9191 35.833 81.933C35.9066 81.9576 35.9706 82.0047 36.016 82.0676C36.0615 82.1306 36.086 82.2062 36.0863 82.2838V82.2838Z" fill="#D9D9D9"/>
</g>
<g style="mix-blend-mode:multiply">
<path d="M36.6187 81.5385C36.6187 81.4648 36.6405 81.3928 36.6815 81.3315C36.7224 81.2702 36.7806 81.2225 36.8487 81.1943C36.9168 81.166 36.9917 81.1587 37.064 81.1731C37.1363 81.1874 37.2027 81.2229 37.2548 81.275C37.3069 81.3271 37.3424 81.3935 37.3568 81.4658C37.3711 81.5381 37.3638 81.613 37.3356 81.6811C37.3073 81.7492 37.2596 81.8074 37.1983 81.8484C37.137 81.8893 37.065 81.9112 36.9913 81.9112C36.8925 81.9112 36.7977 81.8719 36.7278 81.802C36.6579 81.7321 36.6187 81.6374 36.6187 81.5385Z" fill="#D9D9D9"/>
</g>
<g style="mix-blend-mode:multiply">
<path d="M37.1234 81.5385C37.1232 81.6161 37.0986 81.6917 37.0532 81.7546C37.0077 81.8175 36.9437 81.8646 36.8701 81.8893C36.921 81.9054 36.9748 81.9104 37.0278 81.9039C37.0808 81.8974 37.1318 81.8796 37.1773 81.8517C37.2228 81.8238 37.2618 81.7865 37.2916 81.7422C37.3215 81.6979 37.3414 81.6477 37.3502 81.5951C37.3589 81.5424 37.3562 81.4885 37.3423 81.4369C37.3284 81.3854 37.3036 81.3374 37.2695 81.2963C37.2354 81.2552 37.1929 81.2219 37.1449 81.1986C37.0968 81.1754 37.0443 81.1627 36.9909 81.1615C36.9498 81.1627 36.9091 81.1701 36.8701 81.1833C36.9444 81.2082 37.0089 81.256 37.0544 81.3198C37.0999 81.3836 37.1241 81.4601 37.1234 81.5385V81.5385Z" fill="#D9D9D9"/>
</g>
<g style="mix-blend-mode:multiply">
<path d="M37.5708 80.9898C37.5708 80.9161 37.5927 80.8441 37.6336 80.7828C37.6745 80.7215 37.7327 80.6738 37.8008 80.6456C37.8689 80.6174 37.9439 80.61 38.0161 80.6243C38.0884 80.6387 38.1548 80.6742 38.2069 80.7263C38.259 80.7784 38.2945 80.8448 38.3089 80.9171C38.3233 80.9894 38.3159 81.0643 38.2877 81.1324C38.2595 81.2005 38.2117 81.2587 38.1505 81.2997C38.0892 81.3406 38.0171 81.3625 37.9434 81.3625C37.8446 81.3625 37.7498 81.3232 37.6799 81.2533C37.6101 81.1834 37.5708 81.0886 37.5708 80.9898Z" fill="#D9D9D9"/>
</g>
<g style="mix-blend-mode:multiply">
<path d="M38.076 80.9898C38.0758 81.0674 38.0514 81.143 38.0063 81.2061C37.9612 81.2692 37.8975 81.3167 37.8242 81.3421C37.8626 81.3555 37.9029 81.3624 37.9436 81.3625C37.9944 81.3656 38.0453 81.3584 38.0932 81.3411C38.141 81.3239 38.1849 81.297 38.222 81.2621C38.2591 81.2273 38.2886 81.1852 38.3089 81.1385C38.3291 81.0918 38.3395 81.0414 38.3395 80.9906C38.3395 80.9397 38.3291 80.8893 38.3089 80.8426C38.2886 80.7959 38.2591 80.7538 38.222 80.719C38.1849 80.6841 38.141 80.6572 38.0932 80.64C38.0453 80.6227 37.9944 80.6155 37.9436 80.6186C37.903 80.6194 37.8627 80.6262 37.8242 80.639C37.8974 80.6641 37.961 80.7114 38.0061 80.7742C38.0512 80.8371 38.0757 80.9124 38.076 80.9898V80.9898Z" fill="#D9D9D9"/>
</g>
<g style="mix-blend-mode:multiply">
<path d="M38.419 80.3304C38.4181 80.2565 38.4392 80.184 38.4796 80.1222C38.5201 80.0603 38.5779 80.0119 38.646 79.983C38.714 79.9541 38.789 79.9461 38.8616 79.96C38.9342 79.9739 39.001 80.009 39.0535 80.061C39.1061 80.1129 39.142 80.1793 39.1567 80.2517C39.1715 80.3241 39.1643 80.3992 39.1363 80.4676C39.1082 80.5359 39.0604 80.5944 38.9991 80.6355C38.9377 80.6767 38.8655 80.6986 38.7916 80.6986C38.6935 80.6986 38.5994 80.66 38.5296 80.591C38.4599 80.5221 38.4201 80.4284 38.419 80.3304V80.3304Z" fill="#D9D9D9"/>
</g>
<g style="mix-blend-mode:multiply">
<path d="M38.9261 80.3303C38.9257 80.4078 38.901 80.4833 38.8556 80.5462C38.8102 80.6091 38.7463 80.6562 38.6729 80.6811C38.7111 80.695 38.7515 80.7024 38.7922 80.7029C38.891 80.7029 38.9858 80.6637 39.0557 80.5938C39.1256 80.5239 39.1648 80.4291 39.1648 80.3303C39.1648 80.2314 39.1256 80.1367 39.0557 80.0668C38.9858 79.9969 38.891 79.9576 38.7922 79.9576C38.7515 79.9581 38.7111 79.9655 38.6729 79.9795C38.7464 80.0041 38.8105 80.0512 38.8559 80.1142C38.9013 80.1771 38.9259 80.2527 38.9261 80.3303V80.3303Z" fill="#D9D9D9"/>
</g>
<g style="mix-blend-mode:multiply">
<path d="M39.3105 79.722C39.3105 79.6482 39.3324 79.5761 39.3735 79.5148C39.4145 79.4535 39.4727 79.4058 39.5409 79.3776C39.6091 79.3494 39.6841 79.3421 39.7564 79.3566C39.8287 79.3711 39.8951 79.4068 39.9472 79.459C39.9992 79.5113 40.0346 79.5778 40.0488 79.6502C40.063 79.7226 40.0555 79.7975 40.027 79.8656C39.9986 79.9337 39.9506 79.9918 39.8891 80.0325C39.8277 80.0733 39.7555 80.0949 39.6817 80.0946C39.5831 80.0942 39.4887 80.0548 39.4192 79.985C39.3496 79.9151 39.3105 79.8206 39.3105 79.722V79.722Z" fill="#D9D9D9"/>
</g>
<g style="mix-blend-mode:multiply">
<path d="M39.8104 79.722C39.8102 79.7998 39.7857 79.8756 39.7403 79.9388C39.6949 80.002 39.6308 80.0493 39.5571 80.0743C39.5957 80.087 39.6359 80.0939 39.6765 80.0946C39.7753 80.0946 39.8701 80.0554 39.94 79.9855C40.0099 79.9156 40.0491 79.8208 40.0491 79.722C40.0491 79.6232 40.0099 79.5284 39.94 79.4585C39.8701 79.3886 39.7753 79.3494 39.6765 79.3494C39.6358 79.3499 39.5954 79.3572 39.5571 79.3712C39.6306 79.396 39.6945 79.4432 39.7399 79.5061C39.7853 79.569 39.8099 79.6444 39.8104 79.722Z" fill="#D9D9D9"/>
</g>
<g style="mix-blend-mode:multiply">
<path d="M34.1123 81.505C34.1162 81.4314 34.1418 81.3606 34.1859 81.3015C34.23 81.2425 34.2906 81.1978 34.3601 81.1732C34.4296 81.1486 34.5048 81.1452 34.5763 81.1633C34.6477 81.1815 34.7122 81.2205 34.7615 81.2753C34.8108 81.3301 34.8427 81.3983 34.8533 81.4712C34.8638 81.5442 34.8525 81.6186 34.8207 81.6852C34.7889 81.7517 34.7381 81.8073 34.6747 81.8449C34.6113 81.8825 34.5382 81.9005 34.4646 81.8966C34.366 81.8913 34.2735 81.8471 34.2074 81.7737C34.1414 81.7003 34.1072 81.6037 34.1123 81.505V81.505Z" fill="#D9D9D9"/>
</g>
<g style="mix-blend-mode:multiply">
<path d="M34.6169 81.5327C34.6124 81.6101 34.5837 81.6842 34.5349 81.7446C34.486 81.8049 34.4196 81.8484 34.3447 81.8689C34.3827 81.8848 34.423 81.8941 34.4641 81.8966C34.5607 81.8984 34.6543 81.8627 34.7251 81.7968C34.7959 81.731 34.8383 81.6402 34.8434 81.5437C34.8485 81.4471 34.8159 81.3524 34.7524 81.2795C34.689 81.2065 34.5997 81.1611 34.5034 81.1528C34.4626 81.1516 34.4219 81.1565 34.3826 81.1673C34.4548 81.1963 34.5161 81.247 34.5582 81.3125C34.6002 81.378 34.6207 81.455 34.6169 81.5327Z" fill="#D9D9D9"/>
</g>
<g style="mix-blend-mode:multiply">
<path d="M35.188 80.8152C35.1919 80.7416 35.2175 80.6708 35.2616 80.6117C35.3057 80.5526 35.3663 80.508 35.4358 80.4834C35.5053 80.4588 35.5805 80.4554 35.652 80.4735C35.7234 80.4917 35.7879 80.5306 35.8372 80.5855C35.8865 80.6403 35.9184 80.7085 35.9289 80.7814C35.9395 80.8544 35.9281 80.9288 35.8964 80.9953C35.8646 81.0619 35.8138 81.1174 35.7504 81.1551C35.687 81.1927 35.6139 81.2107 35.5403 81.2068C35.4417 81.2015 35.3492 81.1573 35.2831 81.0839C35.2171 81.0105 35.1829 80.9138 35.188 80.8152Z" fill="#D9D9D9"/>
</g>
<g style="mix-blend-mode:multiply">
<path d="M35.6931 80.8442C35.689 80.9217 35.6606 80.996 35.6121 81.0566C35.5635 81.1172 35.4971 81.161 35.4224 81.1819C35.4595 81.1986 35.4996 81.208 35.5403 81.2096C35.5949 81.2137 35.6498 81.2057 35.701 81.1861C35.7521 81.1666 35.7984 81.136 35.8364 81.0966C35.8745 81.0571 35.9033 81.0098 35.921 80.9579C35.9386 80.9061 35.9446 80.8509 35.9385 80.7965C35.9324 80.742 35.9143 80.6896 35.8857 80.6429C35.857 80.5962 35.8184 80.5565 35.7726 80.5264C35.7268 80.4963 35.6749 80.4768 35.6206 80.469C35.5664 80.4613 35.5111 80.4657 35.4588 80.4818C35.5307 80.5102 35.592 80.5604 35.634 80.6254C35.676 80.6904 35.6967 80.7669 35.6931 80.8442V80.8442Z" fill="#D9D9D9"/>
</g>
<g style="mix-blend-mode:multiply">
<path d="M36.1718 80.3231C36.1757 80.2495 36.2012 80.1788 36.2452 80.1197C36.2893 80.0607 36.3498 80.016 36.4192 79.9913C36.4886 79.9667 36.5638 79.9632 36.6352 79.9812C36.7066 79.9992 36.7711 80.038 36.8205 80.0927C36.8698 80.1474 36.9019 80.2154 36.9126 80.2883C36.9233 80.3612 36.9122 80.4356 36.8806 80.5021C36.8491 80.5687 36.7985 80.6244 36.7353 80.6622C36.6721 80.7001 36.5991 80.7183 36.5255 80.7147C36.4268 80.7094 36.3342 80.6652 36.2679 80.5919C36.2016 80.5185 36.1671 80.4219 36.1718 80.3231V80.3231Z" fill="#D9D9D9"/>
</g>
<g style="mix-blend-mode:multiply">
<path d="M36.6716 80.3509C36.6674 80.4282 36.639 80.5023 36.5904 80.5626C36.5418 80.623 36.4755 80.6665 36.4009 80.6871C36.4386 80.7037 36.4791 80.713 36.5202 80.7148C36.5701 80.7192 36.6204 80.7134 36.668 80.6979C36.7156 80.6825 36.7596 80.6575 36.7974 80.6246C36.8352 80.5917 36.8659 80.5516 36.8878 80.5066C36.9097 80.4615 36.9223 80.4125 36.9249 80.3625C36.9274 80.3125 36.9198 80.2625 36.9026 80.2155C36.8854 80.1685 36.8589 80.1254 36.8247 80.0888C36.7904 80.0523 36.7492 80.023 36.7034 80.0028C36.6576 79.9825 36.6082 79.9717 36.5581 79.971C36.5172 79.9698 36.4764 79.9752 36.4373 79.987C36.5096 80.0153 36.5712 80.0658 36.6133 80.1311C36.6553 80.1964 36.6757 80.2733 36.6716 80.3509V80.3509Z" fill="#D9D9D9"/>
</g>
<g style="mix-blend-mode:multiply">
<path d="M37.0455 79.703C37.0494 79.6294 37.075 79.5586 37.1191 79.4995C37.1632 79.4405 37.2238 79.3958 37.2933 79.3712C37.3628 79.3466 37.438 79.3432 37.5095 79.3613C37.5809 79.3795 37.6454 79.4185 37.6947 79.4733C37.744 79.5281 37.7759 79.5963 37.7864 79.6692C37.797 79.7422 37.7856 79.8166 37.7539 79.8831C37.7221 79.9497 37.6713 80.0053 37.6079 80.0429C37.5445 80.0805 37.4714 80.0985 37.3978 80.0946C37.3489 80.0922 37.3009 80.0801 37.2567 80.0591C37.2125 80.0381 37.1729 80.0085 37.1402 79.9721C37.1074 79.9357 37.0822 79.8932 37.0659 79.847C37.0497 79.8008 37.0428 79.7519 37.0455 79.703Z" fill="#D9D9D9"/>
</g>
<g style="mix-blend-mode:multiply">
<path d="M37.5544 79.7293C37.5503 79.8069 37.5219 79.8812 37.4734 79.9417C37.4248 80.0023 37.3585 80.0461 37.2837 80.067C37.3213 80.0824 37.3611 80.0917 37.4016 80.0947C37.4562 80.0988 37.5111 80.0908 37.5623 80.0713C37.6135 80.0517 37.6597 80.0212 37.6978 79.9817C37.7358 79.9423 37.7646 79.8949 37.7823 79.8431C37.7999 79.7912 37.8059 79.7361 37.7998 79.6816C37.7937 79.6272 37.7757 79.5747 37.747 79.5281C37.7183 79.4814 37.6797 79.4416 37.6339 79.4115C37.5881 79.3815 37.5362 79.3619 37.482 79.3542C37.4277 79.3465 37.3725 79.3508 37.3201 79.3669C37.3921 79.3953 37.4533 79.4456 37.4954 79.5105C37.5374 79.5755 37.558 79.652 37.5544 79.7293V79.7293Z" fill="#D9D9D9"/>
</g>
<g style="mix-blend-mode:multiply">
<path d="M37.9449 79.2184C37.9488 79.1448 37.9744 79.074 38.0185 79.0149C38.0626 78.9558 38.1232 78.9112 38.1927 78.8866C38.2622 78.862 38.3374 78.8586 38.4089 78.8767C38.4803 78.8949 38.5448 78.9338 38.5941 78.9886C38.6434 79.0434 38.6753 79.1116 38.6859 79.1846C38.6964 79.2576 38.6851 79.332 38.6533 79.3985C38.6215 79.465 38.5707 79.5206 38.5073 79.5583C38.4439 79.5959 38.3708 79.6139 38.2972 79.61C38.2483 79.6076 38.2004 79.5955 38.1561 79.5745C38.1119 79.5534 38.0723 79.5239 38.0396 79.4875C38.0068 79.4511 37.9816 79.4086 37.9654 79.3624C37.9491 79.3162 37.9422 79.2673 37.9449 79.2184V79.2184Z" fill="#D9D9D9"/>
</g>
<g style="mix-blend-mode:multiply">
<path d="M38.4499 79.2431C38.4455 79.3208 38.4168 79.3951 38.368 79.4557C38.3192 79.5162 38.2527 79.56 38.1777 79.5808C38.2159 79.596 38.2561 79.6053 38.2971 79.6085C38.3937 79.6103 38.4873 79.5746 38.5581 79.5087C38.6289 79.4429 38.6713 79.3521 38.6764 79.2556C38.6815 79.159 38.6489 79.0643 38.5854 78.9914C38.522 78.9184 38.4327 78.873 38.3364 78.8647C38.2956 78.8628 38.2548 78.8677 38.2156 78.8792C38.2875 78.9081 38.3487 78.9586 38.3907 79.0238C38.4327 79.089 38.4534 79.1656 38.4499 79.2431V79.2431Z" fill="#D9D9D9"/>
</g>
<path d="M36.0858 82.3989C36.0731 82.4217 36.056 82.4418 36.0355 82.458C36.0149 82.4742 35.9914 82.4861 35.9662 82.4932C35.9411 82.5002 35.9148 82.5022 35.8888 82.499C35.8629 82.4958 35.8378 82.4875 35.8151 82.4746L34.3595 81.6667C34.3366 81.6541 34.3163 81.6371 34.3 81.6166C34.2837 81.5962 34.2716 81.5726 34.2644 81.5475C34.2572 81.5223 34.2551 81.4959 34.2582 81.4699C34.2613 81.4439 34.2695 81.4188 34.2824 81.396C34.2951 81.3732 34.3122 81.3531 34.3327 81.3369C34.3533 81.3207 34.3768 81.3088 34.402 81.3017C34.4271 81.2947 34.4534 81.2927 34.4794 81.2959C34.5053 81.2991 34.5304 81.3074 34.5531 81.3203L36.0087 82.1267C36.0549 82.1527 36.0889 82.1959 36.1033 82.2469C36.1178 82.2979 36.1115 82.3525 36.0858 82.3989Z" fill="white"/>
<g style="mix-blend-mode:multiply">
<path d="M34.301 81.4047L36.0856 82.3989C36.1112 82.3525 36.1175 82.2979 36.103 82.2469C36.0886 82.1959 36.0546 82.1527 36.0084 82.1267L34.5528 81.3203C34.5301 81.3074 34.505 81.2991 34.4791 81.2959C34.4532 81.2927 34.4268 81.2947 34.4017 81.3017C34.3765 81.3088 34.353 81.3207 34.3324 81.3369C34.3119 81.3531 34.2948 81.3732 34.2821 81.396C34.2691 81.4189 34.2607 81.4441 34.2573 81.4702L34.301 81.4047Z" fill="#C6C6C5"/>
</g>
<path d="M37.0663 81.7089C37.0405 81.755 36.9976 81.789 36.9468 81.8034C36.8961 81.8179 36.8417 81.8116 36.7955 81.7861L35.3399 80.9768C35.2939 80.951 35.2599 80.9081 35.2454 80.8573C35.231 80.8066 35.2372 80.7522 35.2628 80.706V80.706C35.2888 80.6602 35.3318 80.6265 35.3826 80.6123C35.4333 80.5982 35.4875 80.6046 35.5335 80.6303L36.9891 81.4382C37.0352 81.4639 37.0692 81.5069 37.0836 81.5576C37.0981 81.6084 37.0919 81.6628 37.0663 81.7089V81.7089Z" fill="white"/>
<g style="mix-blend-mode:multiply">
<path d="M35.2815 80.7133L37.066 81.7089C37.0916 81.6628 37.0979 81.6084 37.0834 81.5576C37.0689 81.5069 37.035 81.4639 36.9889 81.4382L35.5333 80.6303C35.4873 80.6046 35.433 80.5982 35.3823 80.6123C35.3316 80.6265 35.2885 80.6602 35.2625 80.706C35.2502 80.7291 35.2423 80.7543 35.2393 80.7802L35.2815 80.7133Z" fill="#C6C6C5"/>
</g>
<path d="M38.1483 81.2038C38.1225 81.2499 38.0796 81.2839 38.0288 81.2983C37.9781 81.3128 37.9237 81.3066 37.8775 81.281L36.4219 80.4717C36.399 80.4592 36.3788 80.4423 36.3625 80.422C36.3462 80.4016 36.3341 80.3782 36.3269 80.3532C36.3198 80.3281 36.3176 80.3019 36.3207 80.276C36.3238 80.2501 36.3319 80.2251 36.3448 80.2024C36.3703 80.1561 36.4131 80.1218 36.4639 80.107C36.5146 80.0923 36.5692 80.0983 36.6155 80.1238L38.0711 80.9331C38.1172 80.9588 38.1512 81.0018 38.1656 81.0525C38.1801 81.1033 38.1738 81.1577 38.1483 81.2038V81.2038Z" fill="white"/>
<g style="mix-blend-mode:multiply">
<path d="M36.3645 80.2097L38.149 81.2038C38.1746 81.1577 38.1809 81.1033 38.1664 81.0525C38.1519 81.0018 38.118 80.9588 38.0719 80.9331L36.6163 80.1238C36.57 80.0983 36.5154 80.0923 36.4647 80.107C36.4139 80.1218 36.371 80.1561 36.3456 80.2024C36.332 80.2249 36.324 80.2504 36.3223 80.2766L36.3645 80.2097Z" fill="#C6C6C5"/>
</g>
<path d="M38.9681 80.4716C38.9555 80.4946 38.9385 80.5148 38.918 80.5311C38.8976 80.5474 38.874 80.5595 38.8489 80.5667C38.8237 80.5739 38.7973 80.576 38.7713 80.5729C38.7453 80.5698 38.7202 80.5616 38.6974 80.5488L37.2418 79.7409C37.1957 79.7152 37.1617 79.6722 37.1473 79.6215C37.1328 79.5707 37.1391 79.5163 37.1646 79.4702C37.1904 79.4241 37.2333 79.3901 37.2841 79.3757C37.3348 79.3612 37.3892 79.3675 37.4354 79.393L38.891 80.2009C38.9368 80.2269 38.9705 80.2699 38.9847 80.3207C38.9988 80.3714 38.9924 80.4257 38.9667 80.4716H38.9681Z" fill="white"/>
<g style="mix-blend-mode:multiply">
<path d="M37.1907 79.4775L38.9752 80.4716C39.0009 80.4257 39.0074 80.3714 38.9932 80.3207C38.979 80.2699 38.9454 80.2269 38.8995 80.2009L37.4439 79.393C37.3978 79.3675 37.3434 79.3612 37.2926 79.3757C37.2419 79.3901 37.1989 79.4241 37.1732 79.4702C37.1609 79.4927 37.153 79.5174 37.1499 79.543L37.1907 79.4775Z" fill="#C6C6C5"/>
</g>
<path d="M38.1664 79.4962C38.3687 79.6054 38.603 79.4962 38.7631 79.3506C38.9786 79.141 38.8243 78.8616 38.753 78.6083C38.6724 78.3563 38.6121 78.0984 38.5725 77.8368C38.5579 77.7087 38.5026 77.3798 38.5972 77.2706C38.9029 76.9125 39.1372 77.6971 39.1576 77.8412C39.1901 78.1143 39.151 78.3912 39.0441 78.6447C38.7631 79.3157 37.9407 79.4642 37.5725 78.7771C37.4647 78.5748 37.1562 77.9547 37.5725 77.9693C37.8636 77.9795 38.0732 78.2851 38.2479 78.4787C38.4225 78.6723 38.5972 78.8397 38.7763 79.0173C39.0557 79.2939 39.3585 79.5559 39.6496 79.8223C39.6947 79.863 39.7675 79.8019 39.7224 79.7611C39.3716 79.4394 39.0193 79.1207 38.6816 78.783C38.3992 78.5006 38.1198 78.0552 37.7268 77.9096C37.0412 77.6709 37.3192 78.47 37.4822 78.7931C37.8388 79.5035 38.7297 79.4816 39.0834 78.7757C39.2631 78.4247 39.3051 78.0192 39.2013 77.6389C39.1401 77.4423 38.9946 77.0566 38.7253 77.0828C38.456 77.109 38.4735 77.4744 38.4822 77.6651C38.5066 77.9688 38.5662 78.2688 38.6598 78.5588C38.7166 78.7568 38.8054 78.9547 38.75 79.157C38.7328 79.2137 38.7045 79.2664 38.6668 79.3121C38.6291 79.3578 38.5827 79.3955 38.5304 79.4233C38.478 79.451 38.4207 79.4681 38.3618 79.4736C38.3028 79.4792 38.2433 79.473 38.1867 79.4555C38.1664 79.4555 38.1445 79.4802 38.1678 79.4933L38.1664 79.4962Z" fill="#D9D9D9"/>
<g style="mix-blend-mode:multiply">
<path d="M34.4829 80.9898C34.1642 81.8442 34.4247 82.8821 35.5019 83.1426C36.5208 83.3813 37.202 83.131 37.5819 82.1237C37.8032 81.5415 38.0055 80.9592 38.3505 80.4381C39.1627 79.211 40.5732 79.3872 41.8352 79.5648C42.5266 79.6637 42.9458 79.4454 43.1904 79.064C41.9487 79.326 39.988 79.5255 38.3359 78.7278L35.0827 80.6201C34.9167 80.7278 34.7158 80.8442 34.4829 80.9898Z" fill="#D9D9D9"/>
</g>
<path d="M61.6148 64.4831L59.8768 79.5428H55.1344L53.9307 64.1105L61.6148 64.4831Z" fill="#E58741"/>
<path d="M64.2644 58.9593C64.2644 58.9593 65.0926 63.4484 60.6807 64.1107V57.0656C60.6807 57.0656 63.6501 57.8458 64.2644 58.9593Z" fill="#0C283E"/>
<path d="M60.6855 57.2722C60.6855 57.2722 64.0101 57.8471 63.2109 64.5327L54.5122 64.1048C54.5122 64.1048 51.7117 55.6463 60.6855 57.2722Z" fill="#F8AF41"/>
<path d="M63.4785 57.1818L58.0447 53.8077H41.0142L35.5891 57.1818C33.7201 58.128 34.9181 61.2153 34.9181 61.2153C35.5891 57.1818 39.9792 57.9096 39.9792 57.9096C44.5935 58.4482 44.5571 64.1105 44.5571 64.1105L49.5367 61.5443L54.512 64.1047C54.512 64.1047 54.4756 58.4424 59.0899 57.9038C59.0899 57.9038 63.48 57.176 64.151 61.2095C64.1495 61.2153 65.3475 58.128 63.4785 57.1818Z" fill="#174365"/>
<path d="M63.4785 57.1818L58.0447 53.8077H41.0142L35.5891 57.1818C33.7201 58.128 34.9181 61.2153 34.9181 61.2153C35.5891 57.1818 39.9792 57.9096 39.9792 57.9096C44.5935 58.4482 44.5571 64.1105 44.5571 64.1105L49.5367 61.5443L54.512 64.1047C54.512 64.1047 54.4756 58.4424 59.0899 57.9038C59.0899 57.9038 63.48 57.176 64.151 61.2095C64.1495 61.2153 65.3475 58.128 63.4785 57.1818Z" fill="#174365"/>
<g style="mix-blend-mode:multiply">
<path d="M45.2551 63.7278C45.8286 62.0757 45.9727 60.2343 44.5462 58.9694C43.9115 58.4046 43.2754 57.9316 42.7689 57.2416C42.5928 57 42.6306 56.588 42.683 56.3144C42.7456 55.9883 41.9931 55.9316 41.8271 55.8952C41.2449 55.77 41.0586 55.08 41.3075 54.6055C41.4685 54.2915 41.6901 54.0125 41.9596 53.7845H41.0338L35.5899 57.1383C33.7179 58.0771 34.9057 61.1703 34.9057 61.1703C35.5899 57.1383 39.9785 57.8792 39.9785 57.8792C44.5899 58.4323 44.536 64.0946 44.536 64.0946L45.2551 63.7278Z" fill="#C6C6C5"/>
</g>
<g style="mix-blend-mode:multiply">
<path d="M63.4851 57.2255L58.0615 53.8354H57.651C57.5442 54.0591 57.4054 54.266 57.2391 54.4497C57.1416 54.5647 56.7922 54.8573 56.6569 55.0465C56.6714 55.0698 56.6802 55.0873 56.6991 55.1135C56.7358 55.1615 56.7657 55.2144 56.7879 55.2707C56.8214 55.3012 56.8665 55.3464 56.9334 55.4075C57.0729 55.5478 57.1776 55.7188 57.2391 55.9068C57.3847 56.4483 57.1241 57.0713 56.7442 57.4643C56.2757 57.9356 55.7113 58.3005 55.0892 58.5341C54.0397 58.9548 53.6918 59.7074 53.6059 60.8442C53.5382 61.8178 53.5944 62.796 53.7733 63.7554L54.5011 64.1324C54.5011 64.1324 54.4822 58.4701 59.0979 57.9446C59.0979 57.9446 63.4909 57.2314 64.1489 61.2663C64.143 61.2605 65.3512 58.1761 63.4851 57.2255Z" fill="#C6C6C5"/>
</g>
<path d="M60.3549 75.3931L59.8761 79.543H55.1337L54.8105 75.3931H60.3549Z" fill="white"/>
<path d="M62.4001 80.4615C63.1949 80.8691 64.0013 81.4659 64.4162 81.722C65.5472 82.4295 68.0275 84.233 66.7713 85.8676C66.764 85.8763 63.2546 90.4382 57.9373 85.2286C57.9373 85.2286 53.3608 84.1645 54.6389 80.1194C54.6389 80.1194 58.0843 81.396 60.7247 80.1194C61.1279 79.9287 61.7582 80.134 62.4001 80.4615Z" fill="#72241D"/>
<path d="M60.7247 78.7338C58.0843 80.0103 54.6389 78.7338 54.6389 78.7338C53.3608 82.7789 57.9373 83.8429 57.9373 83.8429C63.2546 89.0525 66.764 84.4892 66.7713 84.4805C68.0275 82.8473 65.1076 81.3291 63.978 80.6231L60.7247 78.7338Z" fill="#E64645"/>
<g style="mix-blend-mode:multiply">
<path d="M56.0585 80.805C57.121 81.1398 59.0701 80.1878 59.6902 81.3509C60.1269 82.1645 60.287 83.3552 61.0424 83.9709C62.3758 85.051 64.8008 84.7191 65.6509 83.1383C65.8427 82.7818 65.9694 82.3939 66.025 81.9928C66.8794 82.7089 67.4675 83.5794 66.7717 84.4848C66.7644 84.4935 63.255 89.0568 57.9376 83.8472C57.9376 83.8472 53.8387 82.8909 54.4864 79.3567C54.6172 79.7041 54.8275 80.016 55.1004 80.2675C55.3734 80.519 55.7015 80.7031 56.0585 80.805Z" fill="#ECECEC"/>
</g>
<g style="mix-blend-mode:multiply">
<path d="M63.4835 82.2838C63.4835 82.2101 63.4617 82.138 63.4207 82.0767C63.3798 82.0155 63.3216 81.9677 63.2535 81.9395C63.1854 81.9113 63.1105 81.9039 63.0382 81.9183C62.9659 81.9327 62.8995 81.9682 62.8474 82.0203C62.7953 82.0724 62.7598 82.1388 62.7454 82.2111C62.7311 82.2834 62.7384 82.3583 62.7666 82.4264C62.7948 82.4945 62.8426 82.5527 62.9039 82.5936C62.9652 82.6345 63.0372 82.6564 63.1109 82.6564C63.2097 82.6564 63.3045 82.6171 63.3744 82.5473C63.4443 82.4774 63.4835 82.3826 63.4835 82.2838Z" fill="#D9D9D9"/>
</g>
<g style="mix-blend-mode:multiply">
<path d="M62.977 82.2838C62.9772 82.3614 63.0018 82.437 63.0472 82.4999C63.0927 82.5628 63.1567 82.6099 63.2303 82.6346C63.192 82.6484 63.1516 82.6558 63.1109 82.6564C63.0121 82.6564 62.9173 82.6171 62.8474 82.5473C62.7775 82.4774 62.7383 82.3826 62.7383 82.2838C62.7383 82.1849 62.7775 82.0902 62.8474 82.0203C62.9173 81.9504 63.0121 81.9111 63.1109 81.9111C63.1516 81.9118 63.192 81.9191 63.2303 81.933C63.1567 81.9576 63.0927 82.0047 63.0472 82.0676C63.0018 82.1306 62.9772 82.2062 62.977 82.2838V82.2838Z" fill="#D9D9D9"/>
</g>
<g style="mix-blend-mode:multiply">
<path d="M62.444 81.5385C62.444 81.4648 62.4221 81.3928 62.3812 81.3315C62.3403 81.2702 62.2821 81.2225 62.214 81.1943C62.1459 81.166 62.071 81.1587 61.9987 81.1731C61.9264 81.1874 61.86 81.2229 61.8079 81.275C61.7558 81.3271 61.7203 81.3935 61.7059 81.4658C61.6915 81.5381 61.6989 81.613 61.7271 81.6811C61.7553 81.7492 61.8031 81.8074 61.8643 81.8484C61.9256 81.8893 61.9977 81.9112 62.0714 81.9112C62.1702 81.9112 62.265 81.8719 62.3349 81.802C62.4047 81.7321 62.444 81.6374 62.444 81.5385Z" fill="#D9D9D9"/>
</g>
<g style="mix-blend-mode:multiply">
<path d="M61.9358 81.5385C61.9358 81.6162 61.9603 81.6919 62.0058 81.7548C62.0512 81.8178 62.1154 81.8648 62.1891 81.8893C62.1388 81.9035 62.0861 81.907 62.0345 81.8995C61.9828 81.8919 61.9333 81.8736 61.8892 81.8456C61.8451 81.8176 61.8074 81.7807 61.7785 81.7371C61.7497 81.6936 61.7304 81.6445 61.7218 81.5929C61.7133 81.5414 61.7157 81.4887 61.7289 81.4382C61.7421 81.3876 61.7659 81.3405 61.7986 81.2997C61.8313 81.259 61.8722 81.2257 61.9187 81.2018C61.9651 81.178 62.0161 81.1643 62.0683 81.1615C62.1094 81.1627 62.1501 81.1701 62.1891 81.1833C62.1148 81.2082 62.0502 81.256 62.0048 81.3198C61.9593 81.3836 61.9351 81.4601 61.9358 81.5385V81.5385Z" fill="#D9D9D9"/>
</g>
<g style="mix-blend-mode:multiply">
<path d="M61.4992 80.9898C61.4989 80.9162 61.4768 80.8443 61.4357 80.7832C61.3945 80.7221 61.3362 80.6746 61.2681 80.6466C61.2 80.6186 61.1251 80.6114 61.053 80.626C60.9808 80.6405 60.9145 80.6761 60.8625 80.7283C60.8106 80.7805 60.7752 80.8469 60.761 80.9191C60.7467 80.9914 60.7542 81.0662 60.7824 81.1342C60.8107 81.2022 60.8584 81.2603 60.9197 81.3012C60.9809 81.3421 61.0529 81.3639 61.1265 81.3639C61.1756 81.3641 61.2243 81.3546 61.2697 81.3358C61.3151 81.3171 61.3563 81.2895 61.391 81.2547C61.4256 81.2199 61.453 81.1786 61.4716 81.1331C61.4902 81.0876 61.4996 81.0389 61.4992 80.9898V80.9898Z" fill="#D9D9D9"/>
</g>
<g style="mix-blend-mode:multiply">
<path d="M60.9873 80.9898C60.9875 81.0676 61.012 81.1434 61.0574 81.2066C61.1028 81.2698 61.1669 81.3172 61.2406 81.3421C61.1845 81.3624 61.1243 81.3687 61.0652 81.3606C61.0061 81.3525 60.9499 81.3301 60.9014 81.2955C60.8528 81.2608 60.8134 81.2149 60.7866 81.1617C60.7597 81.1084 60.7462 81.0495 60.7471 80.9898C60.7475 80.8913 60.7869 80.7968 60.8568 80.7273C60.9266 80.6577 61.0212 80.6187 61.1198 80.6187C61.1608 80.6195 61.2015 80.6264 61.2406 80.639C61.1671 80.6639 61.1032 80.711 61.0578 80.7739C61.0124 80.8368 60.9878 80.9123 60.9873 80.9898V80.9898Z" fill="#D9D9D9"/>
</g>
<g style="mix-blend-mode:multiply">
<path d="M60.6432 80.3303C60.6432 80.2566 60.6214 80.1845 60.5804 80.1233C60.5395 80.062 60.4813 80.0142 60.4132 79.986C60.3451 79.9578 60.2702 79.9504 60.1979 79.9648C60.1256 79.9792 60.0592 80.0147 60.0071 80.0668C59.955 80.1189 59.9195 80.1853 59.9051 80.2576C59.8907 80.3299 59.8981 80.4048 59.9263 80.4729C59.9545 80.541 60.0023 80.5992 60.0636 80.6401C60.1248 80.6811 60.1969 80.7029 60.2706 80.7029C60.3694 80.7029 60.4642 80.6637 60.5341 80.5938C60.604 80.5239 60.6432 80.4291 60.6432 80.3303Z" fill="#D9D9D9"/>
</g>
<g style="mix-blend-mode:multiply">
<path d="M60.1367 80.3303C60.1369 80.4079 60.1615 80.4835 60.2069 80.5464C60.2523 80.6093 60.3164 80.6564 60.3899 80.6811C60.3517 80.695 60.3113 80.7024 60.2706 80.7029C60.1718 80.7029 60.077 80.6637 60.0071 80.5938C59.9372 80.5239 59.8979 80.4291 59.8979 80.3303C59.8979 80.2314 59.9372 80.1367 60.0071 80.0668C60.077 79.9969 60.1718 79.9576 60.2706 79.9576C60.3113 79.9581 60.3517 79.9655 60.3899 79.9795C60.3164 80.0041 60.2523 80.0512 60.2069 80.1142C60.1615 80.1771 60.1369 80.2527 60.1367 80.3303V80.3303Z" fill="#D9D9D9"/>
</g>
<g style="mix-blend-mode:multiply">
<path d="M59.7531 79.722C59.7531 79.6483 59.7312 79.5763 59.6903 79.515C59.6493 79.4537 59.5911 79.4059 59.523 79.3777C59.455 79.3495 59.38 79.3421 59.3078 79.3565C59.2355 79.3709 59.1691 79.4064 59.117 79.4585C59.0648 79.5106 59.0294 79.577 59.015 79.6493C59.0006 79.7216 59.008 79.7965 59.0362 79.8646C59.0644 79.9327 59.1121 79.9909 59.1734 80.0318C59.2347 80.0728 59.3067 80.0946 59.3804 80.0946C59.4793 80.0946 59.5741 80.0554 59.6439 79.9855C59.7138 79.9156 59.7531 79.8208 59.7531 79.722Z" fill="#D9D9D9"/>
</g>
<g style="mix-blend-mode:multiply">
<path d="M59.2473 79.722C59.2475 79.7998 59.272 79.8756 59.3174 79.9388C59.3629 80.002 59.4269 80.0493 59.5006 80.0743C59.4621 80.087 59.4219 80.0939 59.3813 80.0946C59.3305 80.0978 59.2796 80.0906 59.2317 80.0733C59.1838 80.0561 59.14 80.0292 59.1029 79.9943C59.0658 79.9595 59.0362 79.9174 59.016 79.8707C58.9958 79.824 58.9854 79.7736 58.9854 79.7227C58.9854 79.6718 58.9958 79.6215 59.016 79.5748C59.0362 79.5281 59.0658 79.486 59.1029 79.4511C59.14 79.4163 59.1838 79.3894 59.2317 79.3722C59.2796 79.3549 59.3305 79.3476 59.3813 79.3508C59.4219 79.3508 59.4623 79.3577 59.5006 79.3712C59.4271 79.396 59.3633 79.4432 59.3179 79.5061C59.2725 79.569 59.2478 79.6444 59.2473 79.722V79.722Z" fill="#D9D9D9"/>
</g>
<g style="mix-blend-mode:multiply">
<path d="M64.9498 81.505C64.946 81.4314 64.9204 81.3606 64.8763 81.3015C64.8322 81.2425 64.7715 81.1978 64.702 81.1732C64.6326 81.1486 64.5573 81.1452 64.4859 81.1633C64.4144 81.1815 64.35 81.2205 64.3007 81.2753C64.2514 81.3301 64.2194 81.3983 64.2089 81.4712C64.1984 81.5442 64.2097 81.6186 64.2415 81.6852C64.2733 81.7517 64.3241 81.8073 64.3875 81.8449C64.4508 81.8825 64.524 81.9005 64.5976 81.8966C64.6962 81.8913 64.7887 81.8471 64.8547 81.7737C64.9208 81.7003 64.955 81.6037 64.9498 81.505V81.505Z" fill="#D9D9D9"/>
</g>
<g style="mix-blend-mode:multiply">
<path d="M64.4452 81.5328C64.4508 81.609 64.4799 81.6817 64.5283 81.7408C64.5768 81.8 64.6423 81.8427 64.716 81.8632C64.6786 81.8792 64.6387 81.8885 64.5981 81.8908C64.5014 81.8927 64.4078 81.8569 64.3371 81.7911C64.2663 81.7252 64.2239 81.6345 64.2188 81.5379C64.2137 81.4414 64.2463 81.3467 64.3097 81.2737C64.3732 81.2008 64.4625 81.1554 64.5588 81.147C64.5996 81.1458 64.6403 81.1507 64.6796 81.1616C64.6063 81.1907 64.5441 81.2423 64.502 81.309C64.4599 81.3757 64.44 81.454 64.4452 81.5328V81.5328Z" fill="#D9D9D9"/>
</g>
<g style="mix-blend-mode:multiply">
<path d="M63.8746 80.8152C63.8708 80.7416 63.8452 80.6708 63.8011 80.6117C63.757 80.5526 63.6963 80.508 63.6269 80.4834C63.5574 80.4588 63.4821 80.4554 63.4107 80.4735C63.3392 80.4917 63.2748 80.5306 63.2255 80.5855C63.1762 80.6403 63.1442 80.7085 63.1337 80.7814C63.1232 80.8544 63.1345 80.9288 63.1663 80.9953C63.1981 81.0619 63.2489 81.1174 63.3123 81.1551C63.3757 81.1927 63.4488 81.2107 63.5224 81.2068C63.621 81.2015 63.7135 81.1573 63.7795 81.0839C63.8456 81.0105 63.8798 80.9138 63.8746 80.8152V80.8152Z" fill="#D9D9D9"/>
</g>
<g style="mix-blend-mode:multiply">
<path d="M63.3701 80.8442C63.3747 80.9218 63.4035 80.996 63.4522 81.0566C63.501 81.1171 63.5674 81.1609 63.6423 81.1819C63.6042 81.1973 63.5639 81.2062 63.5229 81.2081C63.4731 81.2124 63.423 81.2067 63.3754 81.1912C63.3279 81.1757 63.284 81.1509 63.2462 81.1181C63.2085 81.0853 63.1778 81.0452 63.1559 81.0003C63.134 80.9553 63.1213 80.9065 63.1187 80.8566C63.116 80.8066 63.1235 80.7567 63.1405 80.7097C63.1576 80.6627 63.1839 80.6197 63.218 80.5831C63.252 80.5465 63.2931 80.5171 63.3387 80.4967C63.3844 80.4763 63.4336 80.4653 63.4836 80.4643C63.5245 80.4629 63.5653 80.4683 63.6044 80.4803C63.5322 80.5089 63.4708 80.5593 63.4287 80.6246C63.3867 80.6899 63.3662 80.7667 63.3701 80.8442V80.8442Z" fill="#D9D9D9"/>
</g>
<g style="mix-blend-mode:multiply">
<path d="M62.8952 80.3246C62.8917 80.2509 62.8663 80.1799 62.8224 80.1207C62.7784 80.0614 62.7179 80.0165 62.6484 79.9917C62.5789 79.9669 62.5036 79.9632 62.4321 79.9812C62.3605 79.9993 62.2959 80.0381 62.2465 80.0929C62.197 80.1476 62.1649 80.2158 62.1543 80.2889C62.1436 80.3619 62.1549 80.4364 62.1867 80.503C62.2184 80.5696 62.2692 80.6253 62.3327 80.663C62.3961 80.7006 62.4693 80.7187 62.543 80.7147C62.6413 80.7094 62.7336 80.6654 62.7996 80.5923C62.8656 80.5192 62.9 80.423 62.8952 80.3246V80.3246Z" fill="#D9D9D9"/>
</g>
<g style="mix-blend-mode:multiply">
<path d="M62.3915 80.3508C62.3959 80.4283 62.4243 80.5025 62.4729 80.563C62.5214 80.6236 62.5876 80.6674 62.6623 80.6885C62.6243 80.7039 62.5839 80.7128 62.5429 80.7147C62.4931 80.719 62.443 80.7133 62.3954 80.6978C62.3479 80.6823 62.304 80.6575 62.2663 80.6246C62.2286 80.5918 62.1978 80.5518 62.1759 80.5069C62.154 80.4619 62.1413 80.4131 62.1387 80.3631C62.1361 80.3132 62.1435 80.2633 62.1606 80.2163C62.1776 80.1693 62.204 80.1263 62.238 80.0897C62.2721 80.0531 62.3131 80.0237 62.3587 80.0033C62.4044 79.9829 62.4537 79.9719 62.5036 79.9709C62.5445 79.9695 62.5853 79.9749 62.6244 79.9869C62.5525 80.0157 62.4914 80.0662 62.4496 80.1315C62.4078 80.1968 62.3875 80.2735 62.3915 80.3508V80.3508Z" fill="#D9D9D9"/>
</g>
<g style="mix-blend-mode:multiply">
<path d="M62.0133 79.703C62.0095 79.6294 61.9839 79.5586 61.9398 79.4995C61.8957 79.4405 61.835 79.3958 61.7655 79.3712C61.696 79.3466 61.6208 79.3432 61.5494 79.3613C61.4779 79.3795 61.4135 79.4185 61.3642 79.4733C61.3149 79.5281 61.2829 79.5963 61.2724 79.6692C61.2618 79.7422 61.2732 79.8166 61.305 79.8831C61.3368 79.9497 61.3875 80.0053 61.4509 80.0429C61.5143 80.0805 61.5874 80.0985 61.6611 80.0946C61.71 80.0922 61.7579 80.0801 61.8021 80.0591C61.8463 80.0381 61.8859 80.0085 61.9187 79.9721C61.9514 79.9357 61.9766 79.8932 61.9929 79.847C62.0091 79.8008 62.0161 79.7519 62.0133 79.703V79.703Z" fill="#D9D9D9"/>
</g>
<g style="mix-blend-mode:multiply">
<path d="M61.5084 79.7293C61.5126 79.8069 61.5409 79.8812 61.5895 79.9417C61.638 80.0023 61.7044 80.0461 61.7792 80.067C61.7416 80.0824 61.7018 80.0917 61.6613 80.0947C61.6066 80.0988 61.5518 80.0908 61.5006 80.0713C61.4494 80.0517 61.4031 80.0212 61.3651 79.9817C61.3271 79.9423 61.2982 79.8949 61.2806 79.8431C61.2629 79.7912 61.257 79.7361 61.2631 79.6816C61.2692 79.6272 61.2872 79.5747 61.3159 79.5281C61.3445 79.4814 61.3832 79.4416 61.429 79.4115C61.4748 79.3815 61.5266 79.3619 61.5809 79.3542C61.6351 79.3465 61.6904 79.3508 61.7428 79.3669C61.6708 79.3953 61.6095 79.4456 61.5675 79.5105C61.5255 79.5755 61.5048 79.652 61.5084 79.7293V79.7293Z" fill="#D9D9D9"/>
</g>
<g style="mix-blend-mode:multiply">
<path d="M61.1178 79.2184C61.114 79.1448 61.0884 79.074 61.0443 79.0149C61.0001 78.9558 60.9395 78.9112 60.87 78.8866C60.8005 78.862 60.7253 78.8586 60.6539 78.8767C60.5824 78.8949 60.518 78.9338 60.4687 78.9886C60.4194 79.0434 60.3874 79.1116 60.3769 79.1846C60.3663 79.2576 60.3777 79.332 60.4095 79.3985C60.4412 79.465 60.492 79.5206 60.5554 79.5583C60.6188 79.5959 60.6919 79.6139 60.7656 79.61C60.8144 79.6076 60.8624 79.5955 60.9066 79.5745C60.9508 79.5534 60.9904 79.5239 61.0232 79.4875C61.0559 79.4511 61.0811 79.4086 61.0974 79.3624C61.1136 79.3162 61.1206 79.2673 61.1178 79.2184Z" fill="#D9D9D9"/>
</g>
<g style="mix-blend-mode:multiply">
<path d="M60.6142 79.2431C60.6179 79.3208 60.6461 79.3953 60.6947 79.4559C60.7434 79.5166 60.8099 79.5603 60.8849 79.5808C60.8468 79.596 60.8065 79.6053 60.7656 79.6085C60.7158 79.6128 60.6656 79.607 60.6181 79.5915C60.5706 79.5761 60.5266 79.5512 60.4889 79.5184C60.4512 79.4856 60.4205 79.4455 60.3986 79.4006C60.3767 79.3557 60.364 79.3068 60.3614 79.2569C60.3587 79.207 60.3662 79.157 60.3832 79.11C60.4003 79.0631 60.4266 79.02 60.4607 78.9834C60.4947 78.9468 60.5358 78.9174 60.5814 78.897C60.627 78.8766 60.6763 78.8656 60.7263 78.8647C60.7671 78.8628 60.8079 78.8677 60.8471 78.8792C60.7752 78.908 60.714 78.9585 60.6723 79.0238C60.6305 79.089 60.6102 79.1657 60.6142 79.2431V79.2431Z" fill="#D9D9D9"/>
</g>
<path d="M62.9767 82.3989C62.9895 82.4217 63.0066 82.4418 63.0271 82.458C63.0476 82.4742 63.0712 82.4861 63.0963 82.4932C63.1215 82.5002 63.1478 82.5022 63.1738 82.499C63.1997 82.4958 63.2248 82.4875 63.2475 82.4746L64.7031 81.6667C64.7489 81.6408 64.7826 81.5977 64.7968 81.547C64.8109 81.4962 64.8045 81.442 64.7788 81.396V81.396C64.7661 81.3732 64.7489 81.3531 64.7284 81.3369C64.7079 81.3207 64.6843 81.3088 64.6592 81.3017C64.634 81.2947 64.6077 81.2927 64.5818 81.2959C64.5558 81.2991 64.5308 81.3074 64.508 81.3203L63.0524 82.1267C63.0063 82.1527 62.9723 82.1959 62.9578 82.2469C62.9434 82.2979 62.9496 82.3525 62.9753 82.3989H62.9767Z" fill="white"/>
<g style="mix-blend-mode:multiply">
<path d="M64.7613 81.4047L62.9767 82.3989C62.9511 82.3525 62.9448 82.2979 62.9593 82.2469C62.9737 82.1959 63.0077 82.1527 63.0539 82.1267L64.5095 81.3203C64.5322 81.3074 64.5573 81.2991 64.5832 81.2959C64.6092 81.2927 64.6355 81.2947 64.6606 81.3017C64.6858 81.3088 64.7093 81.3207 64.7299 81.3369C64.7504 81.3531 64.7675 81.3732 64.7802 81.396C64.793 81.419 64.8014 81.4442 64.805 81.4702L64.7613 81.4047Z" fill="#C6C6C5"/>
</g>
<path d="M61.9972 81.7089C62.0229 81.755 62.0658 81.789 62.1166 81.8034C62.1673 81.8179 62.2217 81.8117 62.2679 81.7861L63.7235 80.9768C63.7463 80.9642 63.7663 80.9472 63.7825 80.9268C63.7987 80.9065 63.8107 80.8831 63.8179 80.8581C63.8251 80.8331 63.8272 80.8069 63.8243 80.7811C63.8213 80.7552 63.8133 80.7302 63.8007 80.7075V80.7075C63.7749 80.6614 63.732 80.6274 63.6812 80.613C63.6305 80.5985 63.5761 80.6048 63.5299 80.6303L62.0743 81.4382C62.0282 81.4639 61.9943 81.5069 61.9798 81.5576C61.9653 81.6084 61.9716 81.6628 61.9972 81.7089V81.7089Z" fill="white"/>
<g style="mix-blend-mode:multiply">
<path d="M63.7832 80.7133L61.9972 81.7089C61.9716 81.6628 61.9653 81.6084 61.9798 81.5576C61.9943 81.5069 62.0282 81.4639 62.0743 81.4382L63.5299 80.6303C63.5761 80.6048 63.6305 80.5985 63.6812 80.613C63.732 80.6274 63.7749 80.6614 63.8007 80.7075C63.8132 80.73 63.8211 80.7547 63.8239 80.7803L63.7832 80.7133Z" fill="#C6C6C5"/>
</g>
<path d="M60.9171 81.2037C60.9428 81.2498 60.9858 81.2838 61.0365 81.2982C61.0873 81.3127 61.1417 81.3065 61.1878 81.2809L62.6434 80.473C62.6892 80.447 62.7229 80.404 62.7371 80.3533C62.7513 80.3025 62.7448 80.2483 62.7191 80.2023V80.2023C62.7066 80.1794 62.6898 80.1592 62.6695 80.1429C62.6492 80.1265 62.6258 80.1144 62.6008 80.1071C62.5758 80.0998 62.5496 80.0975 62.5237 80.1003C62.4978 80.1032 62.4727 80.1111 62.4498 80.1237L60.9942 80.933C60.9482 80.9587 60.9142 81.0017 60.8997 81.0524C60.8853 81.1032 60.8915 81.1576 60.9171 81.2037Z" fill="white"/>
<g style="mix-blend-mode:multiply">
<path d="M62.6987 80.2096L60.9171 81.2037C60.8915 81.1576 60.8853 81.1032 60.8997 81.0524C60.9142 81.0017 60.9482 80.9587 60.9942 80.933L62.4498 80.1237C62.4727 80.1111 62.4978 80.1032 62.5237 80.1003C62.5496 80.0975 62.5758 80.0998 62.6008 80.1071C62.6258 80.1144 62.6492 80.1265 62.6695 80.1429C62.6898 80.1592 62.7066 80.1794 62.7191 80.2023C62.7319 80.2252 62.7398 80.2504 62.7424 80.2765L62.6987 80.2096Z" fill="#C6C6C5"/>
</g>
<path d="M60.0947 80.4716C60.1073 80.4946 60.1243 80.5148 60.1448 80.5311C60.1653 80.5474 60.1888 80.5595 60.214 80.5667C60.2391 80.5739 60.2655 80.576 60.2915 80.5729C60.3175 80.5698 60.3426 80.5616 60.3654 80.5488L61.821 79.7409C61.8671 79.7152 61.9011 79.6722 61.9155 79.6215C61.93 79.5707 61.9238 79.5163 61.8982 79.4702V79.4702C61.8724 79.4241 61.8295 79.3901 61.7787 79.3757C61.728 79.3612 61.6736 79.3675 61.6274 79.393L60.1718 80.2009C60.126 80.2269 60.0923 80.2699 60.0782 80.3207C60.064 80.3714 60.0704 80.4257 60.0961 80.4716H60.0947Z" fill="white"/>
<g style="mix-blend-mode:multiply">
<path d="M61.8792 79.4775L60.0947 80.4716C60.069 80.4257 60.0625 80.3714 60.0767 80.3207C60.0909 80.2699 60.1246 80.2269 60.1704 80.2009L61.626 79.393C61.6721 79.3675 61.7265 79.3612 61.7773 79.3757C61.828 79.3901 61.871 79.4241 61.8967 79.4702C61.9097 79.4925 61.9176 79.5173 61.92 79.543L61.8792 79.4775Z" fill="#C6C6C5"/>
</g>
<path d="M60.8806 79.457C60.8043 79.4756 60.7247 79.4768 60.6478 79.4604C60.571 79.444 60.4988 79.4105 60.4367 79.3624C60.2416 79.2255 60.2911 79.0101 60.3377 78.8005C60.3988 78.521 60.5036 78.2532 60.5502 77.9694C60.5837 77.7685 60.671 77.2881 60.4672 77.1324C60.2634 76.9766 60.0597 77.2124 59.9709 77.3769C59.7971 77.7155 59.7601 78.1079 59.8675 78.473C60.0495 79.1615 60.8864 79.6986 61.4381 79.0305C61.6011 78.834 62.0873 77.9359 61.5837 77.866C61.1397 77.8063 60.8224 78.3333 60.5647 78.5938C60.1717 78.9926 59.7598 79.3696 59.3479 79.7466C59.3027 79.7874 59.3639 79.8602 59.409 79.8194C59.7001 79.5531 59.9912 79.291 60.2824 79.0145C60.5735 78.7379 60.853 78.3289 61.1805 78.0945C61.3173 77.997 61.655 77.8383 61.7089 78.1207C61.7119 78.2069 61.6949 78.2926 61.6594 78.3711C61.6176 78.5023 61.564 78.6295 61.4992 78.751C61.1499 79.4089 60.3479 79.3478 60.0436 78.6782C59.9232 78.4234 59.8729 78.141 59.8981 77.8602C59.9199 77.6884 60.0145 77.3245 60.1732 77.227C60.5516 76.997 60.5065 77.588 60.4992 77.7073C60.4669 78.0081 60.4035 78.3047 60.31 78.5924C60.2387 78.8442 60.0844 79.1266 60.2925 79.3376C60.4381 79.4832 60.6899 79.5982 60.8908 79.4832C60.9097 79.4715 60.9024 79.4366 60.8777 79.4424L60.8806 79.457Z" fill="#D9D9D9"/>
<g style="mix-blend-mode:multiply">
<path d="M64.579 80.9898C64.8978 81.8442 64.6372 82.8821 63.5601 83.1426C62.5412 83.3813 61.8585 83.131 61.4786 82.1237C61.2573 81.5415 61.055 80.9592 60.71 80.4381C59.8978 79.211 58.4873 79.3872 57.2253 79.5648C56.5339 79.6637 56.1147 79.4454 55.8701 79.064C57.1117 79.326 59.0724 79.5255 60.7246 78.7278L63.9778 80.6201C64.1452 80.7278 64.3534 80.8515 64.579 80.9898Z" fill="#D9D9D9"/>
</g>
<path d="M89.4147 60.7991H10.585L19.7858 51.0101H82.3055L89.4147 60.7991Z" fill="#422918"/>
<path d="M65.8731 56.8617C65.6154 57.2488 65.122 57.2445 64.2646 57.2445H35.1074C34.2501 57.2445 33.5557 57.0742 33.5557 56.8617L31.7624 52.9752C31.7624 52.7641 31.122 51.0101 32.8643 51.0101H66.7522C68.6693 51.1732 67.7595 52.8005 67.7595 53.013L65.8731 56.8617Z" fill="#191D23"/>
<path d="M65.7544 55.5167C65.7544 56.1805 65.0688 56.7176 64.2231 56.7176H35.2988C34.4531 56.7176 33.7661 56.1805 33.7661 55.5167L32.2217 38.3552C32.2217 37.6929 32.9087 37.1543 33.7544 37.1543H66.0383C66.884 37.1543 67.571 37.6929 67.571 38.3552L65.7544 55.5167Z" fill="#424A56"/>
<g style="mix-blend-mode:soft-light" opacity="0.2">
<path d="M41.1454 41.463C41.0245 43.8226 41.5573 46.2476 43.1381 48.0758C45.6024 50.9215 49.419 51.9987 53.0668 52.2068C56.8266 52.4223 60.6359 51.9477 63.7101 49.5867C64.5202 48.9626 65.2493 48.2399 65.8804 47.4354L66.7538 39.1879C66.7538 38.5649 66.109 38.0598 65.3142 38.0598H41.8193C41.371 39.2228 41.1876 40.6391 41.1454 41.463Z" fill="white"/>
</g>
<g style="mix-blend-mode:multiply">
<path d="M64.8665 50.9199C61.0325 53.6055 56.2784 54.1674 51.7224 53.6245C47.2464 53.0917 42.4065 51.3785 40.1576 47.1528C38.7923 44.5881 38.4662 41.6885 39.047 38.8486C39.1598 38.2767 39.3027 37.7112 39.475 37.1543H33.7544C32.9087 37.1543 32.2217 37.6929 32.2217 38.3552L33.7617 55.5167C33.7617 56.1805 34.4488 56.7176 35.2945 56.7176H64.2231C65.0688 56.7176 65.7544 56.1805 65.7544 55.5167L66.3716 49.6943C65.8991 50.1375 65.3962 50.547 64.8665 50.9199V50.9199Z" fill="#E3E3E2"/>
</g>
<path d="M54.6911 47.3376C54.6914 48.286 54.4105 49.2131 53.884 50.0019C53.3575 50.7907 52.6089 51.4056 51.733 51.7691C50.857 52.1325 49.893 52.2281 48.9627 52.0438C48.0325 51.8595 47.1777 51.4036 46.5065 50.7336C45.8353 50.0636 45.3778 49.2097 45.1918 48.2798C45.0058 47.3498 45.0996 46.3856 45.4615 45.509C45.8234 44.6324 46.437 43.8828 47.2248 43.3548C48.0126 42.8268 48.9392 42.5443 49.8876 42.5429C50.5179 42.5419 51.1423 42.6652 51.7249 42.9057C52.3076 43.1462 52.8371 43.4992 53.2832 43.9445C53.7293 44.3899 54.0833 44.9187 54.3249 45.5009C54.5664 46.0832 54.6909 46.7073 54.6911 47.3376V47.3376Z" fill="#333942"/>
<path d="M54.0643 47.3375C54.0643 48.1621 53.8198 48.9681 53.3617 49.6536C52.9036 50.3392 52.2525 50.8735 51.4908 51.1891C50.729 51.5046 49.8908 51.5872 49.0821 51.4263C48.2734 51.2654 47.5306 50.8684 46.9476 50.2854C46.3646 49.7023 45.9675 48.9595 45.8067 48.1509C45.6458 47.3422 45.7284 46.504 46.0439 45.7422C46.3594 44.9804 46.8938 44.3294 47.5793 43.8713C48.2649 43.4132 49.0709 43.1687 49.8954 43.1687C51.0011 43.1687 52.0614 43.6079 52.8432 44.3897C53.625 45.1715 54.0643 46.2319 54.0643 47.3375Z" fill="#282E35"/>
<path d="M47.6553 45H48.6087C48.8085 44.9934 49.0083 45.014 49.2026 45.0611C49.3209 45.0896 49.4292 45.15 49.5155 45.2358C49.5878 45.314 49.638 45.4099 49.6611 45.5138C49.6903 45.6805 49.7025 45.8497 49.6975 46.0189V46.3347C49.7071 46.5071 49.6828 46.6797 49.6262 46.8427C49.572 46.9543 49.478 47.0416 49.3627 47.0873C49.2025 47.1502 49.0311 47.1794 48.8591 47.1732H48.6058V48.639H47.6596L47.6553 45ZM48.6014 45.623V46.5487H48.6713C48.7043 46.5528 48.7378 46.5491 48.7691 46.538C48.8004 46.5269 48.8287 46.5086 48.8518 46.4847C48.8946 46.4028 48.9123 46.3102 48.9027 46.2183V45.9199C48.9137 45.8345 48.893 45.748 48.8445 45.6768C48.7724 45.6303 48.6867 45.6098 48.6014 45.6186V45.623Z" fill="#576171"/>
<path d="M52.175 46.5853H51.2288V45.9521C51.2363 45.8362 51.226 45.7198 51.1983 45.6071C51.1856 45.5834 51.1659 45.5643 51.1419 45.5523C51.118 45.5403 51.0908 45.5361 51.0643 45.5401C51.0345 45.5373 51.0045 45.5437 50.9784 45.5586C50.9524 45.5734 50.9315 45.596 50.9188 45.6231C50.8919 45.7409 50.8816 45.8619 50.8882 45.9826V47.6726C50.8817 47.7884 50.892 47.9046 50.9188 48.0176C50.9304 48.0455 50.9511 48.0686 50.9775 48.0834C51.0039 48.0982 51.0345 48.1037 51.0643 48.0991C51.0943 48.1042 51.1251 48.099 51.1516 48.0841C51.1781 48.0693 51.1987 48.0458 51.2099 48.0176C51.2381 47.893 51.2489 47.7652 51.2419 47.6376V47.1806H52.1881V47.3262C52.2005 47.596 52.1735 47.8661 52.108 48.1282C52.0407 48.3018 51.9165 48.4476 51.7557 48.5416C51.5532 48.6652 51.319 48.7269 51.0818 48.7192C50.8446 48.7297 50.6087 48.6796 50.3962 48.5736C50.2273 48.4863 50.0993 48.3363 50.0396 48.1558C49.9712 47.8947 49.9418 47.625 49.9523 47.3553V46.2927C49.949 46.0953 49.9578 45.898 49.9785 45.7017C49.9994 45.5639 50.055 45.4337 50.14 45.3232C50.2348 45.1947 50.3626 45.0941 50.5098 45.0321C50.6822 44.9588 50.8683 44.9231 51.0556 44.9273C51.2957 44.9184 51.5339 44.9737 51.7456 45.0874C51.9083 45.1756 52.0346 45.3184 52.1022 45.4906C52.1699 45.735 52.1989 45.9884 52.1881 46.2417L52.175 46.5853Z" fill="#576171"/>
<path d="M66.0481 56.5706C66.0512 56.8446 65.9458 57.1088 65.7549 57.3054C65.564 57.502 65.3031 57.6151 65.0291 57.6201H34.4746C34.2006 57.6151 33.9397 57.502 33.7488 57.3054C33.5579 57.1088 33.4525 56.8446 33.4556 56.5706V56.5706C33.4529 56.2968 33.5585 56.0331 33.7493 55.8368C33.9401 55.6405 34.2008 55.5276 34.4746 55.5226H65.0233C65.2972 55.5272 65.5581 55.64 65.749 55.8364C65.9399 56.0328 66.0454 56.2967 66.0422 56.5706H66.0481Z" fill="#333942"/>
<path d="M89.4147 60.7993H10.585V64.5329H89.4147V60.7993Z" fill="#E58741"/>
<path d="M15.7072 64.5327H10.585V95.0946H15.7072V64.5327Z" fill="#E58741"/>
<path d="M26.6604 64.5327H21.5381V82.211H26.6604V64.5327Z" fill="#E58741"/>
<path d="M75.9094 64.5327H70.7871V82.211H75.9094V64.5327Z" fill="#E58741"/>
<path d="M89.4157 64.5327H84.292V95.0946H89.4157V64.5327Z" fill="#E58741"/>
</svg>
